<svg id="Layer_1" data-name="Layer 1" xmlns="http://www.w3.org/2000/svg" viewBox="0 0 187.5 213.776"><defs><style>.cls-1{fill:none;}.cls-2{fill:#fff;}.cls-3{fill:#dbdadb;}.cls-4{fill:#f1efef;}</style></defs><title>empty-state-week</title><polygon class="cls-1" points="97.895 161.671 97.895 161.706 100.377 161.651 97.895 161.671"/><path class="cls-2" d="M97.9,40.728h5.241v2.7H97.9v3h3.25v1.9H97.9V71.057a3.25,3.25,0,1,0,6.5,0V40.228a4.22,4.22,0,0,1,.7-2.327H97.9Z"/><path class="cls-2" d="M84.845,43.428H82.9V53.964a3.25,3.25,0,1,0,6.5,0V43.428Z"/><path class="cls-2" d="M116.9,3.946H70.4a2.5,2.5,0,0,0-2.5,2.5V55.822a3.25,3.25,0,0,0,6.5,0V43.428H73.27v-2.7h1.95a4.218,4.218,0,0,1,6.851,0H89.4V37.9H74.745a1.5,1.5,0,0,1-1.5-1.5V11.217a1.5,1.5,0,0,1,1.5-1.5h37.8a1.5,1.5,0,0,1,1.5,1.5V36.4a1.5,1.5,0,0,1-1.5,1.5h-.35a4.22,4.22,0,0,1,.7,2.327v11.93a3.25,3.25,0,0,0,6.5,0V6.446A2.5,2.5,0,0,0,116.9,3.946ZM73.27,46.428h1.122v1.9H73.27Z"/><path class="cls-3" d="M116.9,2.946H70.4a3.5,3.5,0,0,0-3.5,3.5V55.822a4.25,4.25,0,0,0,8.5,0v-12.6a3.25,3.25,0,0,1,6.5,0V53.964a4.25,4.25,0,1,0,8.5,0V36.228a3.25,3.25,0,0,1,6.5,0v6.406h0V71.057a4.25,4.25,0,1,0,8.5,0V40.228a3.25,3.25,0,1,1,6.5,0v11.93a4.25,4.25,0,0,0,8.5,0V6.446A3.5,3.5,0,0,0,116.9,2.946Zm2.5,49.211a3.25,3.25,0,0,1-6.5,0V40.228a4.25,4.25,0,0,0-8.5,0V71.057a3.25,3.25,0,1,1-6.5,0V48.328h0v-1.9h0v-3h0v-2.7h0v-4.5a4.25,4.25,0,0,0-8.5,0v4.5h.012v2.7H89.4V53.964a3.25,3.25,0,1,1-6.5,0V43.221a4.25,4.25,0,0,0-8.5,0v12.6a3.25,3.25,0,0,1-6.5,0V6.446a2.5,2.5,0,0,1,2.5-2.5h46.5a2.5,2.5,0,0,1,2.5,2.5Z"/><path class="cls-4" d="M114.045,36.4V11.217a1.5,1.5,0,0,0-1.5-1.5h-37.8a1.5,1.5,0,0,0-1.5,1.5V36.4a1.5,1.5,0,0,0,1.5,1.5H89.4V36.228a4.25,4.25,0,0,1,8.5,0V37.9h7.2a4.237,4.237,0,0,1,7.1,0h.35A1.5,1.5,0,0,0,114.045,36.4Z"/><path class="cls-2" d="M52.845,3.946H6.345a2.5,2.5,0,0,0-2.5,2.5V89.759a3.25,3.25,0,0,0,6.5,0v-22.6a4.25,4.25,0,0,1,8.5,0V77.9a3.25,3.25,0,0,0,6.5,0V60.164a4.25,4.25,0,0,1,8.5,0V84.992a3.25,3.25,0,0,0,6.5,0V60.164a4.25,4.25,0,0,1,8.5,0V77.093a3.25,3.25,0,0,0,6.5,0V6.446A2.5,2.5,0,0,0,52.845,3.946ZM9.145,37.828h29.7v2.7H9.145Zm1.3,20.88a1.2,1.2,0,1,1,1.2-1.2A1.2,1.2,0,0,1,10.445,58.708Zm4.4,0a1.2,1.2,0,1,1,1.2-1.2A1.2,1.2,0,0,1,14.845,58.708Zm4.5,0a1.2,1.2,0,1,1,1.2-1.2A1.2,1.2,0,0,1,19.345,58.708Zm26.3-5.58H9.245v-1.9h36.4Zm1.575-3.9H9.245v-1.9H47.22Zm2.725-3.8H9.145v-1.9h40.8Zm0-12.877a1.5,1.5,0,0,1-1.5,1.5h-37.8a1.5,1.5,0,0,1-1.5-1.5V11.217a1.5,1.5,0,0,1,1.5-1.5h37.8a1.5,1.5,0,0,1,1.5,1.5Z"/><path class="cls-3" d="M52.845,2.946H6.345a3.5,3.5,0,0,0-3.5,3.5V89.759a4.25,4.25,0,0,0,8.5,0v-22.6a3.25,3.25,0,0,1,6.5,0V77.9a4.25,4.25,0,0,0,8.5,0V60.164a3.25,3.25,0,0,1,6.5,0V84.992a4.25,4.25,0,0,0,8.5,0V60.164a3.25,3.25,0,0,1,6.5,0V77.093a4.25,4.25,0,0,0,8.5,0V6.446A3.5,3.5,0,0,0,52.845,2.946Zm2.5,74.146a3.25,3.25,0,0,1-6.5,0V60.164a4.25,4.25,0,0,0-8.5,0V84.992a3.25,3.25,0,0,1-6.5,0V60.164a4.25,4.25,0,0,0-8.5,0V77.9a3.25,3.25,0,0,1-6.5,0V67.157a4.25,4.25,0,0,0-8.5,0v22.6a3.25,3.25,0,0,1-6.5,0V6.446a2.5,2.5,0,0,1,2.5-2.5h46.5a2.5,2.5,0,0,1,2.5,2.5Z"/><circle class="cls-2" cx="52.095" cy="90.192" r="3.25"/><path class="cls-3" d="M52.095,85.942a4.25,4.25,0,1,0,4.25,4.25A4.254,4.254,0,0,0,52.095,85.942Zm-3.25,4.25a3.25,3.25,0,1,1,3.25,3.25A3.254,3.254,0,0,1,48.845,90.192Z"/><path class="cls-2" d="M7.095,115.96a3.254,3.254,0,0,0,3.25-3.25V101.967a3.25,3.25,0,0,0-6.5,0V112.71A3.254,3.254,0,0,0,7.095,115.96Z"/><path class="cls-3" d="M7.095,116.96a4.254,4.254,0,0,0,4.25-4.25V101.967a4.25,4.25,0,0,0-8.5,0V112.71A4.254,4.254,0,0,0,7.095,116.96Zm-3.25-14.993a3.25,3.25,0,0,1,6.5,0V112.71a3.25,3.25,0,0,1-6.5,0Z"/><circle class="cls-2" cx="101.095" cy="83.692" r="3.25"/><path class="cls-3" d="M105.345,83.692a4.25,4.25,0,1,0-4.25,4.25A4.254,4.254,0,0,0,105.345,83.692Zm-4.25-3.25a3.25,3.25,0,1,1-3.25,3.25A3.254,3.254,0,0,1,101.095,80.442Z"/><path class="cls-2" d="M86.145,74.82a3.254,3.254,0,0,0,3.25-3.25V66.59a3.25,3.25,0,0,0-6.5,0v4.98A3.254,3.254,0,0,0,86.145,74.82Z"/><path class="cls-3" d="M90.4,71.57V66.59a4.25,4.25,0,0,0-8.5,0v4.98a4.25,4.25,0,0,0,8.5,0Zm-7.5-4.98a3.25,3.25,0,0,1,6.5,0v4.98a3.25,3.25,0,0,1-6.5,0Z"/><path class="cls-2" d="M131.945,6.446V39.127l.052,68.7a3.25,3.25,0,0,0,6.5,0V92.894a4.25,4.25,0,0,1,8.5,0v23.829a3.25,3.25,0,1,0,6.5,0V82.447H137.421v-1.9h16.111a4.22,4.22,0,0,1,.676-2H137.421v-1.9H157.71c.013,0,.024,0,.037,0s.024,0,.037,0h20.337v1.9H161.286a4.22,4.22,0,0,1,.676,2h13.55v1.9H162V109.63a3.25,3.25,0,0,0,6.5,0V96.887a4.25,4.25,0,0,1,8.5,0v23.6a3.25,3.25,0,1,0,6.5,0l-.052-83.938V6.446a2.5,2.5,0,0,0-2.5-2.5h-46.5A2.5,2.5,0,0,0,131.945,6.446Zm15.576,79.181a1.2,1.2,0,1,1-1.2,1.2A1.2,1.2,0,0,1,147.521,85.628Zm-4.5,0a1.2,1.2,0,1,1-1.2,1.2A1.2,1.2,0,0,1,143.021,85.628Zm-4.4,0a1.2,1.2,0,1,1-1.2,1.2A1.2,1.2,0,0,1,138.621,85.628Zm-1.3-74.411a1.5,1.5,0,0,1,1.5-1.5h37.8a1.5,1.5,0,0,1,1.5,1.5V61.34a1.5,1.5,0,0,1-1.5,1.5h-37.8a1.5,1.5,0,0,1-1.5-1.5Zm0,55.931h33.357v2.7H137.321Zm0,5.7h38.857v1.9H137.321Z"/><path class="cls-3" d="M135.247,112.073a4.254,4.254,0,0,0,4.25-4.25V92.894a3.25,3.25,0,0,1,6.5,0v23.829a4.25,4.25,0,1,0,8.5,0V80.894a3.25,3.25,0,0,1,6.5,0V84.55l0,.011h0V109.63a4.25,4.25,0,0,0,8.5,0V96.887a3.25,3.25,0,0,1,6.5,0v23.6a4.25,4.25,0,1,0,8.5,0l-.052-83.938V6.446a3.5,3.5,0,0,0-3.5-3.5h-46.5a3.5,3.5,0,0,0-3.5,3.5V39.127l.052,68.7A4.254,4.254,0,0,0,135.247,112.073Zm48.2-105.627v30.1l.052,83.938a3.25,3.25,0,1,1-6.5,0v-23.6a4.25,4.25,0,0,0-8.5,0V109.63a3.25,3.25,0,0,1-6.5,0V80.894c0-.119-.025-.23-.035-.346a4.2,4.2,0,0,0-4.178-3.9c-.013,0-.024,0-.037,0s-.024,0-.037,0a4.2,4.2,0,0,0-4.178,3.9c-.01.116-.035.228-.035.346v35.829a3.25,3.25,0,1,1-6.5,0V92.894a4.25,4.25,0,0,0-8.5,0v14.93a3.25,3.25,0,0,1-6.5,0l-.052-68.7V6.446a2.5,2.5,0,0,1,2.5-2.5h46.5A2.5,2.5,0,0,1,183.445,6.446Z"/><path class="cls-2" d="M165.247,118.111a3.254,3.254,0,0,0-3.25,3.25v4.98a3.25,3.25,0,0,0,6.5,0v-4.98A3.254,3.254,0,0,0,165.247,118.111Z"/><path class="cls-3" d="M169.5,121.361a4.25,4.25,0,0,0-8.5,0v4.98a4.25,4.25,0,1,0,8.5,0Zm-1,4.98a3.25,3.25,0,0,1-6.5,0v-4.98a3.25,3.25,0,0,1,6.5,0Z"/><circle class="cls-2" cx="165.247" cy="138.346" r="3.25"/><path class="cls-3" d="M165.247,134.1a4.25,4.25,0,1,0,4.25,4.25A4.254,4.254,0,0,0,165.247,134.1Zm0,7.5a3.25,3.25,0,1,1,3.25-3.25A3.254,3.254,0,0,1,165.247,141.6Z"/><path class="cls-2" d="M97.9,161.671l2.482-.021-2.482.055v.964a3.25,3.25,0,1,0,6.5,0v-1.053h.013a.474.474,0,0,1-.013-.067v-.787H97.9Z"/><path class="cls-2" d="M116.9,98.717H70.4a2.5,2.5,0,0,0-2.5,2.5v60.646a3.25,3.25,0,0,0,6.5,0v-1.146a1.5,1.5,0,0,1-1.15-1.454V106.03a1.5,1.5,0,0,1,1.5-1.5h37.8a1.5,1.5,0,0,1,1.5,1.5v53.232a1.5,1.5,0,0,1-1.15,1.454v13.812a3.25,3.25,0,0,0,6.5,0V101.217A2.5,2.5,0,0,0,116.9,98.717Z"/><path class="cls-2" d="M104.391,161.616v1.05a3.25,3.25,0,0,1-6.5,0v-17.73a4.25,4.25,0,0,0-8.5,0v24.83a3.25,3.25,0,0,1-6.5,0v-24.83a4.25,4.25,0,0,0-8.5,0v16.93a3.25,3.25,0,0,1-6.5,0v-60.65a2.507,2.507,0,0,1,2.5-2.5h46.5a2.5,2.5,0,0,1,2.5,2.5v73.31a3.25,3.25,0,0,1-6.5,0v-22.6a4.25,4.25,0,0,0-8.5,0v9.62a.145.145,0,0,0,.02.07Z"/><path class="cls-3" d="M105.391,162.666a4.25,4.25,0,0,1-8.5,0v-.92h.01c0-.01-.01-.02-.01-.03v-16.78a3.25,3.25,0,0,0-6.5,0v24.83a4.25,4.25,0,0,1-8.5,0v-24.83a3.25,3.25,0,0,0-6.5,0v16.97a4.25,4.25,0,0,1-8.5-.04v-60.65a3.5,3.5,0,0,1,3.5-3.5h46.5a3.5,3.5,0,0,1,3.5,3.5v73.31a4.25,4.25,0,0,1-8.5,0v-22.6a3.25,3.25,0,0,0-6.5,0v9.62a.127.127,0,0,1-.01.06h.01Zm-1-10.74a4.25,4.25,0,0,1,8.5,0v22.6a3.25,3.25,0,0,0,6.5,0v-73.31a2.5,2.5,0,0,0-2.5-2.5h-46.5a2.507,2.507,0,0,0-2.5,2.5v60.65a3.25,3.25,0,0,0,6.5,0v-16.93a4.25,4.25,0,0,1,8.5,0v24.83a3.25,3.25,0,0,0,6.5,0v-24.83a4.25,4.25,0,0,1,8.5,0v17.73a3.25,3.25,0,0,0,6.5,0v-1.05h.02a.145.145,0,0,1-.02-.07v-9.62Z"/><circle class="cls-2" cx="86.145" cy="181.065" r="3.25"/><path class="cls-3" d="M86.145,176.815a4.25,4.25,0,1,0,4.25,4.25A4.254,4.254,0,0,0,86.145,176.815Zm0,7.5a3.25,3.25,0,1,1,3.25-3.25A3.254,3.254,0,0,1,86.145,184.315Z"/><path class="cls-2" d="M25.345,161.219v-1.661a4.2,4.2,0,0,1,.586-2.116H10.695a1.5,1.5,0,0,1-1.5-1.5V134.608a1.5,1.5,0,0,1,1.5-1.5h37.8a1.5,1.5,0,0,1,1.5,1.5v21.333a1.5,1.5,0,0,1-1.5,1.5H33.258a4.2,4.2,0,0,1,.586,2.116v17.736a3.25,3.25,0,0,0,6.5,0V166.551a4.25,4.25,0,0,1,8.5,0v12.6a3.25,3.25,0,0,0,6.5,0V129.777a2.5,2.5,0,0,0-2.5-2.5H6.345a2.5,2.5,0,0,0-2.5,2.5v45.71a3.25,3.25,0,0,0,6.5,0V174.2a1.183,1.183,0,0,1,0-2.359v-3.02H9.195v-1.9h1.15v-3H9.195v-2.7h1.857a4.239,4.239,0,0,1,7.086,0Zm12.875,7.6H33.851v-1.9H38.22Zm2.625-4.9H33.851v-2.7h6.994Z"/><path class="cls-2" d="M18.845,165.175v29.212a3.25,3.25,0,0,0,6.5,0V168.819H18.851v-1.9h6.493v-3h-6.5Z"/><path class="cls-3" d="M52.845,126.277H6.345a3.5,3.5,0,0,0-3.5,3.5v45.71a4.25,4.25,0,0,0,8.5,0v-11.93a3.25,3.25,0,0,1,6.5,0v30.829a4.25,4.25,0,0,0,8.5,0V159.558a3.25,3.25,0,0,1,6.5,0v5.659c0,.012.006.022.007.033h-.007v12.043a4.25,4.25,0,0,0,8.5,0V166.551a3.25,3.25,0,0,1,6.5,0v12.6a4.25,4.25,0,0,0,8.5,0V129.777A3.5,3.5,0,0,0,52.845,126.277Zm-38.25,33.03a4.263,4.263,0,0,0-4.25,4.25v11.93a3.25,3.25,0,0,1-6.5,0v-45.71a2.5,2.5,0,0,1,2.5-2.5h46.5a2.5,2.5,0,0,1,2.5,2.5v49.375a3.25,3.25,0,0,1-6.5,0v-12.6a4.25,4.25,0,0,0-8.5,0v10.743a3.25,3.25,0,0,1-6.5,0V159.558a4.25,4.25,0,0,0-8.5,0v1.661h0v2.7h0v3h0v1.9h0v25.568a3.25,3.25,0,0,1-6.5,0V163.558a4.263,4.263,0,0,0-4.25-4.25Z"/><rect class="cls-4" x="9.145" y="37.828" width="29.7" height="2.7"/><rect class="cls-4" x="9.145" y="43.528" width="40.8" height="1.9"/><rect class="cls-4" x="9.245" y="47.328" width="37.975" height="1.9"/><rect class="cls-4" x="9.245" y="51.228" width="36.4" height="1.9"/><circle class="cls-4" cx="10.445" cy="57.508" r="1.2"/><circle class="cls-4" cx="14.845" cy="57.508" r="1.2"/><circle class="cls-4" cx="19.345" cy="57.508" r="1.2"/><path class="cls-4" d="M73.27,43.428H74.4v-.207a4.212,4.212,0,0,1,.825-2.493H73.27Z"/><rect class="cls-4" x="73.27" y="46.428" width="1.122" height="1.9"/><rect class="cls-4" x="9.145" y="9.717" width="40.8" height="24.333" rx="1.5" ry="1.5"/><polygon class="cls-4" points="101.145 46.428 97.895 46.428 97.895 46.428 97.895 48.328 97.895 48.328 101.145 48.328 101.145 46.428"/><path class="cls-4" d="M84.687,40.728H82.071a4.212,4.212,0,0,1,.825,2.493v.207h6.512v-2.7H84.687Z"/><polygon class="cls-4" points="103.137 40.728 97.895 40.728 97.895 40.728 97.895 43.428 97.895 43.428 103.137 43.428 103.137 40.728"/><rect class="cls-4" x="137.321" y="9.717" width="40.8" height="53.124" rx="1.5" ry="1.5"/><rect class="cls-4" x="137.321" y="67.147" width="33.357" height="2.7"/><rect class="cls-4" x="137.321" y="72.847" width="38.857" height="1.9"/><path class="cls-4" d="M137.421,78.547h16.787a4.245,4.245,0,0,1,3.5-1.9H137.421Z"/><path class="cls-4" d="M178.121,76.647H157.784a4.245,4.245,0,0,1,3.5,1.9h16.835Z"/><path class="cls-4" d="M175.512,80.547h-13.55c.01.116.035.228.035.346v1.554h13.515Z"/><path class="cls-4" d="M137.421,82.447H153.5V80.894c0-.119.025-.23.035-.346H137.421Z"/><circle class="cls-4" cx="138.621" cy="86.828" r="1.2"/><circle class="cls-4" cx="143.021" cy="86.828" r="1.2"/><circle class="cls-4" cx="147.521" cy="86.828" r="1.2"/><path class="cls-4" d="M9.195,163.919h1.15v-.362a4.221,4.221,0,0,1,.707-2.339H9.195Z"/><rect class="cls-4" x="9.195" y="166.919" width="1.15" height="1.9"/><path class="cls-4" d="M49.995,155.942V134.608a1.5,1.5,0,0,0-1.5-1.5h-37.8a1.5,1.5,0,0,0-1.5,1.5v21.333a1.5,1.5,0,0,0,1.5,1.5H25.931a4.212,4.212,0,0,1,7.328,0H48.495A1.5,1.5,0,0,0,49.995,155.942Z"/><path class="cls-4" d="M9.245,173.019a1.19,1.19,0,0,0,1.1,1.18V171.84A1.19,1.19,0,0,0,9.245,173.019Z"/><polygon class="cls-4" points="18.851 168.819 25.345 168.819 25.345 168.819 25.345 166.919 25.345 166.919 18.851 166.919 18.851 168.819"/><rect class="cls-4" x="33.851" y="166.919" width="4.369" height="1.9"/><path class="cls-4" d="M18.845,163.558v.362h6.5v-2.7H18.138A4.221,4.221,0,0,1,18.845,163.558Z"/><rect class="cls-4" x="33.851" y="161.219" width="6.994" height="2.7"/><path class="cls-4" d="M114.045,159.263V106.03a1.5,1.5,0,0,0-1.5-1.5h-37.8a1.5,1.5,0,0,0-1.5,1.5v53.232a1.5,1.5,0,0,0,1.15,1.454V144.934a4.25,4.25,0,0,1,8.5,0v15.829h6.5V144.934a4.25,4.25,0,0,1,8.5,0v15.829h6.5v-8.836a4.25,4.25,0,0,1,8.5,0v8.79A1.5,1.5,0,0,0,114.045,159.263Z"/><path class="cls-2" d="M146.971,191.46v.368h6.5v-3h-7.439A4.208,4.208,0,0,1,146.971,191.46Z"/><path class="cls-2" d="M176.971,199.626v.771a3.25,3.25,0,0,0,6.5,0V154.686a2.5,2.5,0,0,0-2.5-2.5h-46.5a2.5,2.5,0,0,0-2.5,2.5v49.376a3.25,3.25,0,0,0,6.5,0v-4.954a1.183,1.183,0,0,1,0-2.36v-3.02h-1.15v-1.9h1.15v-.368a4.208,4.208,0,0,1,.939-2.632h-2.039v-2.7h16.1v-1.661a4.2,4.2,0,0,1,.586-2.116H138.821a1.5,1.5,0,0,1-1.5-1.5V159.517a1.5,1.5,0,0,1,1.5-1.5h37.8a1.5,1.5,0,0,1,1.5,1.5v21.333a1.5,1.5,0,0,1-1.5,1.5H161.384a4.2,4.2,0,0,1,.586,2.116v1.661h6.041v2.7h-6.041V207.3a3.25,3.25,0,0,0,6.5,0V188.467a4.25,4.25,0,0,1,8.5,0Zm-10.625-7.8v1.9h-4.369v-1.9Z"/><path class="cls-2" d="M150.012,193.728h-3.041V202.2a3.25,3.25,0,0,0,6.5,0v-8.475Z"/><path class="cls-3" d="M180.971,151.186h-46.5a3.5,3.5,0,0,0-3.5,3.5v49.376a4.25,4.25,0,0,0,8.5,0v-2.837h0l0-.008V191.46a3.25,3.25,0,0,1,6.5,0V202.2a4.25,4.25,0,0,0,8.5,0V184.467a3.25,3.25,0,0,1,6.5,0V207.3a4.25,4.25,0,0,0,8.5,0V188.467a3.25,3.25,0,0,1,6.5,0V200.4a4.25,4.25,0,0,0,8.5,0V154.686A3.5,3.5,0,0,0,180.971,151.186Zm-8.25,33.031a4.254,4.254,0,0,0-4.25,4.25V207.3a3.25,3.25,0,0,1-6.5,0V184.467a4.25,4.25,0,0,0-8.5,0v7.361h0v1.9h0V202.2a3.25,3.25,0,0,1-6.5,0V191.46a4.25,4.25,0,0,0-8.5,0v12.6a3.25,3.25,0,0,1-6.5,0V154.686a2.5,2.5,0,0,1,2.5-2.5h46.5a2.5,2.5,0,0,1,2.5,2.5V200.4a3.25,3.25,0,0,1-6.5,0v-11.93A4.254,4.254,0,0,0,172.721,184.217Z"/><path class="cls-4" d="M137.371,188.828h2.039a4.2,4.2,0,0,1,6.622,0h7.439v-2.7h-16.1Z"/><rect class="cls-4" x="161.971" y="186.128" width="6.041" height="2.7"/><rect class="cls-4" x="137.321" y="191.828" width="1.15" height="1.9"/><path class="cls-4" d="M178.121,180.851V159.517a1.5,1.5,0,0,0-1.5-1.5h-37.8a1.5,1.5,0,0,0-1.5,1.5v21.333a1.5,1.5,0,0,0,1.5,1.5h15.236a4.212,4.212,0,0,1,7.327,0h15.237A1.5,1.5,0,0,0,178.121,180.851Z"/><path class="cls-4" d="M137.371,197.928a1.19,1.19,0,0,0,1.1,1.18v-2.36A1.19,1.19,0,0,0,137.371,197.928Z"/><rect class="cls-4" x="161.977" y="191.828" width="4.369" height="1.9"/><polygon class="cls-4" points="150.012 191.828 149.102 191.828 146.971 191.828 146.971 193.728 149.102 193.728 150.012 193.728 153.471 193.728 153.471 193.728 153.471 191.828 153.471 191.828 150.012 191.828"/></svg>