<svg id="Layer_1" data-name="Layer 1" xmlns="http://www.w3.org/2000/svg" viewBox="0 0 185 158.28"><defs><style>.cls-1{fill:#fff;}.cls-2{fill:#dbdadb;}.cls-3{fill:#f1efef;}</style></defs><title>empty-state-week</title><path class="cls-1" d="M118.6,118.19a2.647,2.647,0,0,1-2.6,2.6H68.7a2.647,2.647,0,0,1-2.6-2.6V49.79a2.647,2.647,0,0,1,2.6-2.6H116a2.647,2.647,0,0,1,2.6,2.6Z"/><path class="cls-2" d="M116,121.29H68.7a3.142,3.142,0,0,1-3.1-3.1V49.79a3.142,3.142,0,0,1,3.1-3.1H116a3.142,3.142,0,0,1,3.1,3.1v68.4A3.142,3.142,0,0,1,116,121.29ZM68.7,47.69a2.155,2.155,0,0,0-2.1,2.1v68.4a2.155,2.155,0,0,0,2.1,2.1H116a2.155,2.155,0,0,0,2.1-2.1V49.79a2.155,2.155,0,0,0-2.1-2.1Z"/><path class="cls-1" d="M54.7,85.29a2.8,2.8,0,0,1-2.8,2.8H5a2.8,2.8,0,0,1-2.8-2.8V5.39A2.8,2.8,0,0,1,5,2.59H51.9a2.8,2.8,0,0,1,2.8,2.8Z"/><path class="cls-2" d="M51.9,88.59H5a3.3,3.3,0,0,1-3.3-3.3V5.39A3.3,3.3,0,0,1,5,2.09H51.9a3.3,3.3,0,0,1,3.3,3.3v79.9A3.3,3.3,0,0,1,51.9,88.59ZM5,3.09a2.3,2.3,0,0,0-2.3,2.3v79.9A2.3,2.3,0,0,0,5,87.59H51.9a2.3,2.3,0,0,0,2.3-2.3V5.39a2.3,2.3,0,0,0-2.3-2.3Z"/><path class="cls-1" d="M182.8,143.39a2.582,2.582,0,0,1-2.6,2.6H132.8a2.582,2.582,0,0,1-2.6-2.6V78.59a2.582,2.582,0,0,1,2.6-2.6h47.4a2.582,2.582,0,0,1,2.6,2.6Z"/><path class="cls-2" d="M180.2,146.49H132.8a3.068,3.068,0,0,1-3.1-3.1V78.59a3.067,3.067,0,0,1,3.1-3.1h47.4a3.067,3.067,0,0,1,3.1,3.1v64.8A3.068,3.068,0,0,1,180.2,146.49Zm-47.4-70a2.078,2.078,0,0,0-2.1,2.1v64.8a2.078,2.078,0,0,0,2.1,2.1h47.4a2.078,2.078,0,0,0,2.1-2.1V78.59a2.078,2.078,0,0,0-2.1-2.1Z"/><path class="cls-1" d="M118.8,33.89a1.793,1.793,0,0,1-1.8,1.8H68a1.793,1.793,0,0,1-1.8-1.8V4.39A1.793,1.793,0,0,1,68,2.59h49a1.793,1.793,0,0,1,1.8,1.8Z"/><path class="cls-2" d="M117,36.19H68a2.3,2.3,0,0,1-2.3-2.3V4.39A2.3,2.3,0,0,1,68,2.09h49a2.3,2.3,0,0,1,2.3,2.3v29.5A2.3,2.3,0,0,1,117,36.19ZM68,3.09a1.287,1.287,0,0,0-1.3,1.3v29.5a1.286,1.286,0,0,0,1.3,1.3h49a1.286,1.286,0,0,0,1.3-1.3V4.39a1.287,1.287,0,0,0-1.3-1.3Z"/><path class="cls-1" d="M54.7,153.69a2.263,2.263,0,0,1-2.3,2.3H4.5a2.263,2.263,0,0,1-2.3-2.3v-51.8a2.263,2.263,0,0,1,2.3-2.3H52.4a2.263,2.263,0,0,1,2.3,2.3Z"/><path class="cls-2" d="M52.4,156.49H4.5a2.77,2.77,0,0,1-2.8-2.8v-51.8a2.77,2.77,0,0,1,2.8-2.8H52.4a2.77,2.77,0,0,1,2.8,2.8v51.8A2.77,2.77,0,0,1,52.4,156.49ZM4.5,100.09a1.76,1.76,0,0,0-1.8,1.8v51.8a1.76,1.76,0,0,0,1.8,1.8H52.4a1.76,1.76,0,0,0,1.8-1.8v-51.8a1.76,1.76,0,0,0-1.8-1.8Z"/><path class="cls-1" d="M182.8,61.69a2.433,2.433,0,0,1-2.4,2.4H132.7a2.433,2.433,0,0,1-2.4-2.4v-57a2.433,2.433,0,0,1,2.4-2.4h47.7a2.433,2.433,0,0,1,2.4,2.4Z"/><path class="cls-2" d="M180.4,64.59H132.7a2.939,2.939,0,0,1-2.9-2.9v-57a2.939,2.939,0,0,1,2.9-2.9h47.7a2.939,2.939,0,0,1,2.9,2.9v57A2.939,2.939,0,0,1,180.4,64.59ZM132.7,2.79a1.925,1.925,0,0,0-1.9,1.9v57a1.925,1.925,0,0,0,1.9,1.9h47.7a1.926,1.926,0,0,0,1.9-1.9v-57a1.926,1.926,0,0,0-1.9-1.9Z"/><path class="cls-3" d="M176.9,119.19a1.367,1.367,0,0,1-1.4,1.4h-38a1.367,1.367,0,0,1-1.4-1.4V84.09a1.367,1.367,0,0,1,1.4-1.4h38a1.367,1.367,0,0,1,1.4,1.4Z"/><rect class="cls-3" x="136.1" y="123.99" width="35.6" height="2.7"/><rect class="cls-3" x="136.1" y="129.69" width="29.6" height="1.9"/><path class="cls-3" d="M112.7,89.49a1.367,1.367,0,0,1-1.4,1.4h-38a1.367,1.367,0,0,1-1.4-1.4V55.19a1.367,1.367,0,0,1,1.4-1.4h38a1.367,1.367,0,0,1,1.4,1.4Z"/><rect class="cls-3" x="71.9" y="95.09" width="28.8" height="2.7"/><rect class="cls-3" x="71.9" y="100.79" width="36.6" height="1.9"/><path class="cls-3" d="M48.9,55.79a1.075,1.075,0,0,1-1,1H9.1a1.075,1.075,0,0,1-1-1V10.19a1,1,0,0,1,1-1H47.9a1,1,0,0,1,1,1Z"/><rect class="cls-3" x="8" y="60.49" width="32" height="2.7"/><rect class="cls-3" x="8" y="66.19" width="40.8" height="1.9"/><rect class="cls-3" x="8.1" y="69.99" width="40.8" height="1.9"/><rect class="cls-3" x="8.1" y="73.89" width="36.4" height="1.9"/><path class="cls-2" d="M34.9,27.49H22.1a1.538,1.538,0,0,0-1.5,1.5v8.4a1.538,1.538,0,0,0,1.5,1.5H34.9a1.426,1.426,0,0,0,1.2-.6c.1-.1.1-.2.2-.3a1.268,1.268,0,0,0,.1-.6v-8.4A1.538,1.538,0,0,0,34.9,27.49Zm-13.3,1.5a.472.472,0,0,1,.5-.5H34.9a.472.472,0,0,1,.5.5v8l-4-4c-.1-.1-.4-.2-.5,0l-2.4,2-2.7-2.7a.33.33,0,0,0-.5,0l-3.6,2.8v-6.1Zm.5,8.9a.472.472,0,0,1-.5-.5v-1.5l3.8-2.9,2.7,2.7,2.2,2.2Zm12.8,0H31.4L29,35.49l2.1-1.8,4.1,4.1A.367.367,0,0,1,34.9,37.89Z"/><path d="M36.2,37.99c0,.1,0,.2-.1.2H36A.215.215,0,0,0,36.2,37.99Z"/><path class="cls-2" d="M33.2,32.39a1.6,1.6,0,1,1,1.6-1.6A1.645,1.645,0,0,1,33.2,32.39Zm0-2.5a.789.789,0,0,0-.8.8.86.86,0,0,0,.8.8.8.8,0,0,0,0-1.6Z"/><path class="cls-2" d="M162.9,95.89H150.1a1.538,1.538,0,0,0-1.5,1.5v8.4a1.538,1.538,0,0,0,1.5,1.5h12.8a1.426,1.426,0,0,0,1.2-.6c.1-.1.1-.2.2-.3a1.268,1.268,0,0,0,.1-.6v-8.4A1.538,1.538,0,0,0,162.9,95.89Zm-13.3,1.5a.472.472,0,0,1,.5-.5h12.8a.472.472,0,0,1,.5.5v8l-4-4a.454.454,0,0,0-.5,0l-2.4,2-2.7-2.7a.33.33,0,0,0-.5,0l-3.6,2.8v-6.1Zm.5,9a.472.472,0,0,1-.5-.5v-1.5l3.8-2.9,2.7,2.7,2.2,2.2Zm12.8,0h-3.5l-2.4-2.4,2.1-1.8,4.1,4.1C163.1,106.29,163,106.39,162.9,106.39Z"/><path class="cls-2" d="M161.2,100.79a1.6,1.6,0,1,1,1.6-1.6A1.58,1.58,0,0,1,161.2,100.79Zm0-2.4a.789.789,0,0,0-.8.8.86.86,0,0,0,.8.8.789.789,0,0,0,.8-.8C162.1,98.79,161.7,98.39,161.2,98.39Z"/><rect class="cls-3" x="72.1" y="8.09" width="32" height="2.7"/><rect class="cls-3" x="72.1" y="13.79" width="40.8" height="1.9"/><rect class="cls-3" x="72.1" y="17.59" width="40.8" height="1.9"/><rect class="cls-3" x="72.1" y="21.39" width="36.4" height="1.9"/><rect class="cls-3" x="71.9" y="104.59" width="40.8" height="1.9"/><path class="cls-3" d="M48.9,119.89a.9.9,0,0,1-.9.9H9a.9.9,0,0,1-.9-.9v-13.9a.9.9,0,0,1,.9-.9H48a.9.9,0,0,1,.9.9Z"/><rect class="cls-3" x="11" y="123.89" width="30.6" height="1.9"/><rect class="cls-3" x="11" y="127.69" width="27.3" height="1.9"/><rect class="cls-3" x="8.1" y="137.89" width="40.8" height="1.9"/><rect class="cls-3" x="8.1" y="141.69" width="36.4" height="1.9"/><path class="cls-3" d="M177,22.69a.9.9,0,0,1-.9.9h-39a.9.9,0,0,1-.9-.9V8.89a.9.9,0,0,1,.9-.9h39a.9.9,0,0,1,.9.9Z"/><rect class="cls-3" x="139.1" y="26.69" width="32.1" height="1.9"/><rect class="cls-3" x="139.1" y="30.49" width="28.6" height="1.9"/><rect class="cls-3" x="136.1" y="40.29" width="28.4" height="2.7"/><rect class="cls-3" x="136.1" y="45.99" width="40.8" height="1.9"/><rect class="cls-3" x="136.2" y="49.79" width="36.7" height="1.9"/><circle class="cls-3" cx="137.4" cy="57.09" r="1.2"/><circle class="cls-3" cx="141.8" cy="57.09" r="1.2"/><circle class="cls-3" cx="146.3" cy="57.09" r="1.2"/><path class="cls-2" d="M98.7,66.69H85.9a1.538,1.538,0,0,0-1.5,1.5v8.4a1.538,1.538,0,0,0,1.5,1.5H98.7a1.426,1.426,0,0,0,1.2-.6c.1-.1.1-.2.2-.3a1.268,1.268,0,0,0,.1-.6v-8.4A1.473,1.473,0,0,0,98.7,66.69Zm-13.3,1.5a.472.472,0,0,1,.5-.5H98.7a.472.472,0,0,1,.5.5v8l-4-4c-.1-.1-.4-.2-.5,0l-2.4,2-2.7-2.7a.446.446,0,0,0-.5,0l-3.6,2.8v-6.1Zm.5,8.9a.472.472,0,0,1-.5-.5v-1.5l3.8-2.9,2.7,2.7,2.2,2.2Zm12.8,0H95.2l-2.4-2.4,2.1-1.8,4.1,4.1C98.9,76.99,98.8,77.09,98.7,77.09Z"/><path d="M100.1,77.19c0,.1,0,.2-.1.2h-.1C100,77.39,100,77.29,100.1,77.19Z"/><path class="cls-2" d="M97,71.49a1.6,1.6,0,1,1,1.6-1.6A1.58,1.58,0,0,1,97,71.49Zm0-2.4a.789.789,0,0,0-.8.8.86.86,0,0,0,.8.8.789.789,0,0,0,.8-.8C97.9,69.49,97.5,69.09,97,69.09Z"/><path class="cls-2" d="M47.7,133.59H9.3a1.725,1.725,0,0,1-1.7-1.7v-25.5a1.724,1.724,0,0,1,1.7-1.7H47.7a1.724,1.724,0,0,1,1.7,1.7v25.5A1.725,1.725,0,0,1,47.7,133.59ZM9.3,105.69a.719.719,0,0,0-.7.7v25.5a.719.719,0,0,0,.7.7H47.7a.719.719,0,0,0,.7-.7v-25.5a.718.718,0,0,0-.7-.7Z"/><path class="cls-2" d="M175.8,36.39H137.4a1.725,1.725,0,0,1-1.7-1.7V9.19a1.724,1.724,0,0,1,1.7-1.7h38.4a1.724,1.724,0,0,1,1.7,1.7v25.5A1.724,1.724,0,0,1,175.8,36.39ZM137.4,8.49a.719.719,0,0,0-.7.7v25.5a.719.719,0,0,0,.7.7h38.4a.718.718,0,0,0,.7-.7V9.19a.718.718,0,0,0-.7-.7Z"/><circle class="cls-3" cx="73.3" cy="28.69" r="1.2"/><circle class="cls-3" cx="77.8" cy="28.69" r="1.2"/><circle class="cls-3" cx="82.2" cy="28.69" r="1.2"/><circle class="cls-3" cx="9.3" cy="81.09" r="1.2"/><circle class="cls-3" cx="13.7" cy="81.09" r="1.2"/><circle class="cls-3" cx="18.2" cy="81.09" r="1.2"/><circle class="cls-3" cx="9.3" cy="148.99" r="1.2"/><circle class="cls-3" cx="13.7" cy="148.99" r="1.2"/><circle class="cls-3" cx="18.2" cy="148.99" r="1.2"/><circle class="cls-3" cx="73.2" cy="111.89" r="1.2"/><circle class="cls-3" cx="77.6" cy="111.89" r="1.2"/><circle class="cls-3" cx="82" cy="111.89" r="1.2"/><circle class="cls-3" cx="137.3" cy="136.89" r="1.2"/><circle class="cls-3" cx="141.8" cy="136.89" r="1.2"/><circle class="cls-3" cx="146.2" cy="136.89" r="1.2"/></svg>