<svg id="Layer_1" data-name="Layer 1" xmlns="http://www.w3.org/2000/svg" viewBox="0 0 185 100.8"><defs><style>.cls-1{fill:#fff;}.cls-2{fill:#dbdadb;}.cls-3{fill:#f1efef;}</style></defs><title>empty-state-week</title><path class="cls-1" d="M118.9,43.15a2.006,2.006,0,0,1-2,2H68.4a2.006,2.006,0,0,1-2-2V4.25a2.006,2.006,0,0,1,2-2h48.5a2.006,2.006,0,0,1,2,2Z"/><path class="cls-2" d="M116.9,45.65H68.4a2.5,2.5,0,0,1-2.5-2.5V4.25a2.5,2.5,0,0,1,2.5-2.5h48.5a2.5,2.5,0,0,1,2.5,2.5v38.9A2.5,2.5,0,0,1,116.9,45.65ZM68.4,2.75a1.5,1.5,0,0,0-1.5,1.5v38.9a1.5,1.5,0,0,0,1.5,1.5h48.5a1.5,1.5,0,0,0,1.5-1.5V4.25a1.5,1.5,0,0,0-1.5-1.5Z"/><path class="cls-1" d="M54.8,43.15a2.006,2.006,0,0,1-2,2H4.3a2.006,2.006,0,0,1-2-2V4.25a2.006,2.006,0,0,1,2-2H52.8a2.006,2.006,0,0,1,2,2Z"/><path class="cls-2" d="M52.8,45.65H4.3a2.5,2.5,0,0,1-2.5-2.5V4.25a2.5,2.5,0,0,1,2.5-2.5H52.8a2.5,2.5,0,0,1,2.5,2.5v38.9A2.5,2.5,0,0,1,52.8,45.65ZM4.3,2.75a1.5,1.5,0,0,0-1.5,1.5v38.9a1.5,1.5,0,0,0,1.5,1.5H52.8a1.5,1.5,0,0,0,1.5-1.5V4.25a1.5,1.5,0,0,0-1.5-1.5Z"/><path class="cls-1" d="M55,96.55a2.006,2.006,0,0,1-2,2H4.5a2.006,2.006,0,0,1-2-2v-39a2.006,2.006,0,0,1,2-2H53a2.006,2.006,0,0,1,2,2Z"/><path class="cls-2" d="M53,99.05H4.5A2.5,2.5,0,0,1,2,96.55v-39a2.5,2.5,0,0,1,2.5-2.5H53a2.5,2.5,0,0,1,2.5,2.5v39A2.5,2.5,0,0,1,53,99.05Zm-48.5-43A1.5,1.5,0,0,0,3,57.55v39a1.5,1.5,0,0,0,1.5,1.5H53a1.5,1.5,0,0,0,1.5-1.5v-39a1.5,1.5,0,0,0-1.5-1.5Z"/><path class="cls-1" d="M118.9,96.55a2.006,2.006,0,0,1-2,2H68.4a2.006,2.006,0,0,1-2-2v-39a2.006,2.006,0,0,1,2-2h48.5a2.006,2.006,0,0,1,2,2Z"/><path class="cls-2" d="M116.9,99.05H68.4a2.5,2.5,0,0,1-2.5-2.5v-39a2.5,2.5,0,0,1,2.5-2.5h48.5a2.5,2.5,0,0,1,2.5,2.5v39A2.5,2.5,0,0,1,116.9,99.05Zm-48.5-43a1.5,1.5,0,0,0-1.5,1.5v39a1.5,1.5,0,0,0,1.5,1.5h48.5a1.5,1.5,0,0,0,1.5-1.5v-39a1.5,1.5,0,0,0-1.5-1.5Z"/><path class="cls-1" d="M182.7,96.55a2.006,2.006,0,0,1-2,2H132.2a2.006,2.006,0,0,1-2-2v-39a2.006,2.006,0,0,1,2-2h48.5a2.006,2.006,0,0,1,2,2Z"/><path class="cls-2" d="M180.7,99.05H132.2a2.5,2.5,0,0,1-2.5-2.5v-39a2.5,2.5,0,0,1,2.5-2.5h48.5a2.5,2.5,0,0,1,2.5,2.5v39A2.5,2.5,0,0,1,180.7,99.05Zm-48.5-43a1.5,1.5,0,0,0-1.5,1.5v39a1.5,1.5,0,0,0,1.5,1.5h48.5a1.5,1.5,0,0,0,1.5-1.5v-39a1.5,1.5,0,0,0-1.5-1.5Z"/><path class="cls-1" d="M182.7,43.15a2.006,2.006,0,0,1-2,2H132.2a2.006,2.006,0,0,1-2-2V4.25a2.006,2.006,0,0,1,2-2h48.5a2.006,2.006,0,0,1,2,2Z"/><path class="cls-2" d="M180.7,45.65H132.2a2.5,2.5,0,0,1-2.5-2.5V4.25a2.5,2.5,0,0,1,2.5-2.5h48.5a2.5,2.5,0,0,1,2.5,2.5v38.9A2.5,2.5,0,0,1,180.7,45.65ZM132.2,2.75a1.5,1.5,0,0,0-1.5,1.5v38.9a1.5,1.5,0,0,0,1.5,1.5h48.5a1.5,1.5,0,0,0,1.5-1.5V4.25a1.5,1.5,0,0,0-1.5-1.5Z"/><rect class="cls-3" x="136" y="8.85" width="40.8" height="18.3"/><rect class="cls-3" x="136" y="30.15" width="35.6" height="2.7"/><rect class="cls-3" x="136" y="35.85" width="29.6" height="1.9"/><rect class="cls-3" x="72.1" y="8.85" width="40.8" height="18.3"/><rect class="cls-3" x="72.1" y="30.15" width="28.8" height="2.7"/><rect class="cls-3" x="72.1" y="35.85" width="36.6" height="1.9"/><rect class="cls-3" x="8.1" y="8.85" width="40.8" height="18.3"/><rect class="cls-3" x="8.1" y="30.15" width="32" height="2.7"/><rect class="cls-3" x="8.1" y="35.85" width="33.8" height="1.9"/><rect class="cls-3" x="136.1" y="62.15" width="40.8" height="18.3"/><rect class="cls-3" x="136.1" y="83.55" width="21.5" height="2.7"/><rect class="cls-3" x="136.1" y="89.15" width="27.6" height="1.9"/><rect class="cls-3" x="72.2" y="62.15" width="40.8" height="18.3"/><rect class="cls-3" x="72.2" y="83.55" width="33.1" height="2.7"/><rect class="cls-3" x="72.2" y="89.15" width="38.4" height="1.9"/><rect class="cls-3" x="8.2" y="62.15" width="40.8" height="18.3"/><rect class="cls-3" x="8.2" y="83.55" width="25.6" height="2.7"/><rect class="cls-3" x="8.2" y="89.15" width="36.9" height="1.9"/></svg>