<svg id="Layer_1" data-name="Layer 1" xmlns="http://www.w3.org/2000/svg" viewBox="0 0 204.5 151.186"><defs><style>.cls-1{fill:#fff;}.cls-2{fill:#dbdadb;}.cls-3{fill:#f1efef;}</style></defs><title>empty-state-week</title><path class="cls-1" d="M126.861,48.391a2.006,2.006,0,0,1-2.2,1.78L76.428,45.1a2.006,2.006,0,0,1-1.78-2.2L78.714,4.216a2.006,2.006,0,0,1,2.2-1.78l48.234,5.07a2.006,2.006,0,0,1,1.78,2.2Z"/><path class="cls-2" d="M124.875,50.681a2.414,2.414,0,0,1-.265-.014L76.376,45.6a2.5,2.5,0,0,1-2.225-2.748L78.217,4.163a2.5,2.5,0,0,1,2.748-2.224L129.2,7.009a2.506,2.506,0,0,1,2.224,2.748l-4.066,38.687a2.505,2.505,0,0,1-2.482,2.238ZM80.7,2.926a1.508,1.508,0,0,0-1.491,1.343L75.145,42.956A1.5,1.5,0,0,0,76.48,44.6l48.235,5.069a1.511,1.511,0,0,0,1.1-.328,1.491,1.491,0,0,0,.549-1.007h0L130.43,9.651A1.5,1.5,0,0,0,129.095,8L80.86,2.933A1.427,1.427,0,0,0,80.7,2.926Z"/><path class="cls-1" d="M47.7,75.272A2.006,2.006,0,0,1,44.964,76l-42-24.25a2.006,2.006,0,0,1-.732-2.732l19.45-33.688a2.006,2.006,0,0,1,2.732-.732l42,24.25a2.006,2.006,0,0,1,.732,2.732Z"/><path class="cls-2" d="M45.955,76.772a2.473,2.473,0,0,1-1.242-.335l-42-24.25A2.5,2.5,0,0,1,1.8,48.772l19.45-33.688a2.506,2.506,0,0,1,3.416-.914l42,24.25a2.5,2.5,0,0,1,.916,3.414L48.129,75.522a2.486,2.486,0,0,1-1.519,1.163A2.548,2.548,0,0,1,45.955,76.772ZM23.418,14.835a1.513,1.513,0,0,0-.394.053,1.492,1.492,0,0,0-.911.7L2.662,49.272a1.5,1.5,0,0,0,.549,2.05l42,24.25a1.5,1.5,0,0,0,2.049-.55h0l19.45-33.688a1.506,1.506,0,0,0-.549-2.049l-42-24.25A1.488,1.488,0,0,0,23.418,14.835Z"/><path class="cls-1" d="M59.51,144.185a2.006,2.006,0,0,1-2.372,1.54L9.7,135.642a2.006,2.006,0,0,1-1.54-2.372l8.109-38.148a2.006,2.006,0,0,1,2.372-1.54l47.44,10.084a2.006,2.006,0,0,1,1.54,2.372Z"/><path class="cls-2" d="M57.555,146.269a2.552,2.552,0,0,1-.521-.055L9.594,136.131a2.506,2.506,0,0,1-1.926-2.966l8.108-38.146a2.507,2.507,0,0,1,2.965-1.927l47.44,10.084a2.506,2.506,0,0,1,1.926,2.966L60,144.288a2.511,2.511,0,0,1-2.444,1.981ZM18.223,94.037a1.509,1.509,0,0,0-1.468,1.188L8.646,133.373A1.505,1.505,0,0,0,9.8,135.152l47.44,10.084a1.471,1.471,0,0,0,1.127-.211,1.49,1.49,0,0,0,.651-.944h0l8.108-38.147a1.505,1.505,0,0,0-1.155-1.779L18.534,94.07A1.464,1.464,0,0,0,18.223,94.037Z"/><path class="cls-1" d="M131.076,106.058a2.006,2.006,0,0,1-1.761,2.213l-48.188,5.488A2.006,2.006,0,0,1,78.913,112L74.5,73.249a2.006,2.006,0,0,1,1.761-2.213l48.188-5.488a2.006,2.006,0,0,1,2.213,1.761Z"/><path class="cls-2" d="M80.9,114.272a2.5,2.5,0,0,1-2.482-2.217L74,73.305a2.5,2.5,0,0,1,2.2-2.767l48.188-5.488a2.505,2.505,0,0,1,2.767,2.2L131.573,106h0a2.506,2.506,0,0,1-2.2,2.768l-48.188,5.488A2.538,2.538,0,0,1,80.9,114.272Zm43.778-48.237a1.444,1.444,0,0,0-.171.01L76.317,71.533A1.5,1.5,0,0,0,75,73.192l4.414,38.75a1.5,1.5,0,0,0,1.661,1.32l48.188-5.488a1.5,1.5,0,0,0,1.321-1.66l-4.414-38.749a1.5,1.5,0,0,0-1.488-1.33Z"/><path class="cls-1" d="M184.527,146.311a2.006,2.006,0,0,1-2.52,1.284l-46.126-14.987a2.006,2.006,0,0,1-1.284-2.52L146.648,93a2.006,2.006,0,0,1,2.52-1.284L195.295,106.7a2.006,2.006,0,0,1,1.284,2.52Z"/><path class="cls-2" d="M182.623,148.193a2.488,2.488,0,0,1-.771-.123l-46.126-14.987a2.5,2.5,0,0,1-1.605-3.15l12.052-37.091a2.5,2.5,0,0,1,3.149-1.605l46.127,14.987a2.5,2.5,0,0,1,1.605,3.15L185,146.465a2.514,2.514,0,0,1-2.38,1.729ZM148.552,92.114a1.5,1.5,0,0,0-1.428,1.036l-12.052,37.091a1.5,1.5,0,0,0,.963,1.891l46.126,14.987a1.508,1.508,0,0,0,1.891-.963L196.1,109.065a1.5,1.5,0,0,0-.963-1.891L149.014,92.187A1.5,1.5,0,0,0,148.552,92.114Zm35.976,54.2h0Z"/><path class="cls-1" d="M192.352,71.526a2.006,2.006,0,0,1-2.424,1.457L142.869,61.249a2.006,2.006,0,0,1-1.457-2.424l9.411-37.745a2.006,2.006,0,0,1,2.424-1.457l47.059,11.733a2.006,2.006,0,0,1,1.457,2.424Z"/><path class="cls-2" d="M190.413,73.543a2.522,2.522,0,0,1-.606-.075L142.748,61.735a2.507,2.507,0,0,1-1.821-3.031l9.411-37.744a2.505,2.505,0,0,1,3.03-1.821l47.06,11.733a2.5,2.5,0,0,1,1.821,3.03l-9.411,37.745a2.51,2.51,0,0,1-2.425,1.9ZM152.764,20.064a1.51,1.51,0,0,0-1.456,1.138L141.9,58.946a1.507,1.507,0,0,0,1.093,1.818L190.049,72.5a1.5,1.5,0,0,0,1.818-1.092h0l9.411-37.745a1.5,1.5,0,0,0-1.093-1.817l-47.06-11.733A1.477,1.477,0,0,0,152.764,20.064Z"/><rect class="cls-3" x="161.01" y="31.422" width="18.3" height="40.8" transform="translate(78.712 204.391) rotate(-76)"/><rect class="cls-3" x="169.553" y="20.294" width="2.7" height="35.6" transform="translate(92.596 194.705) rotate(-76)"/><rect class="cls-3" x="168.325" y="17.426" width="1.9" height="29.6" transform="translate(97.055 188.676) rotate(-76)"/><rect class="cls-3" x="94.084" y="0.219" width="18.3" height="40.8" transform="translate(71.937 121.132) rotate(-84)"/><rect class="cls-3" x="94.506" y="19.018" width="2.7" height="28.8" transform="translate(52.602 125.255) rotate(-84)"/><rect class="cls-3" x="98.231" y="20.796" width="1.9" height="36.6" transform="translate(49.931 133.647) rotate(-84)"/><rect class="cls-3" x="22.644" y="29.815" width="18.3" height="40.8" transform="matrix(0.5, -0.866, 0.866, 0.5, -27.59, 52.642)"/><rect class="cls-3" x="33.384" y="20.323" width="2.7" height="32" transform="translate(-14.09 48.242) rotate(-60)"/><rect class="cls-3" x="37.213" y="15.283" width="1.9" height="33.8" transform="translate(-8.79 49.142) rotate(-60)"/><rect class="cls-3" x="158.262" y="93.8" width="18.3" height="40.8" transform="translate(7.068 238.129) rotate(-72)"/><rect class="cls-3" x="152.682" y="113.402" width="2.7" height="21.5" transform="translate(-11.643 232.28) rotate(-72)"/><rect class="cls-3" x="154.375" y="116.24" width="1.9" height="27.6" transform="translate(-16.349 237.579) rotate(-72)"/><rect class="cls-3" x="82.989" y="86.222" width="40.8" height="18.3" transform="translate(-10.128 12.312) rotate(-6.498)"/><rect class="cls-3" x="81.474" y="80.945" width="33.1" height="2.7" transform="translate(-8.683 11.621) rotate(-6.498)"/><rect class="cls-3" x="80.869" y="75.879" width="38.4" height="1.9" transform="translate(-8.051 11.817) rotate(-6.498)"/><rect class="cls-3" x="29.786" y="93.598" width="18.3" height="40.8" transform="translate(-80.666 128.382) rotate(-78)"/><rect class="cls-3" x="27.325" y="112.92" width="2.7" height="25.6" transform="translate(-100.26 127.63) rotate(-78)"/><rect class="cls-3" x="32.17" y="113.531" width="1.9" height="36.9" transform="translate(-102.863 136.937) rotate(-78)"/></svg>