<svg id="Layer_1" data-name="Layer 1" xmlns="http://www.w3.org/2000/svg" viewBox="0 0 288 200"><defs><style>.cls-1{fill:#f5f8fa;}.cls-2{fill:none;}.cls-3{fill:#bfc0c1;}</style></defs><title>collections-placeholder</title><rect class="cls-1" width="288" height="200"/><path class="cls-2" d="M129.729,95.886a1.5,1.5,0,0,1,1.962.133l11.679,11.617,10.356-8.78a1.5,1.5,0,0,1,2.03.083l18.565,18.577V82.407a3.5,3.5,0,0,0-3.5-3.5H116.636a3.5,3.5,0,0,0-3.5,3.5v26.019Zm34.486-13a6.494,6.494,0,1,1-6.493,6.494A6.5,6.5,0,0,1,164.216,82.889Z"/><circle class="cls-2" cx="164.216" cy="89.383" r="3.994"/><path class="cls-2" d="M130.5,99.064l-17.363,13.121v5.408a3.5,3.5,0,0,0,3.5,3.5h36.009Z"/><path class="cls-2" d="M154.611,102.038l-9.106,7.722L156.9,121.094h13.922a3.465,3.465,0,0,0,2.109-.725Z"/><path class="cls-3" d="M170.821,75.907H116.636a6.508,6.508,0,0,0-6.5,6.5v35.187a6.508,6.508,0,0,0,6.5,6.5h54.185a6.508,6.508,0,0,0,6.5-6.5V82.407A6.508,6.508,0,0,0,170.821,75.907Zm-54.185,3h54.185a3.5,3.5,0,0,1,3.5,3.5v35.11L155.756,98.939a1.5,1.5,0,0,0-2.03-.083l-10.356,8.78L131.691,96.019a1.5,1.5,0,0,0-1.962-.133l-16.593,12.54V82.407A3.5,3.5,0,0,1,116.636,78.907Zm-3.5,38.687v-5.408L130.5,99.064l22.147,22.029H116.636A3.5,3.5,0,0,1,113.136,117.594Zm43.763,3.5L145.505,109.76l9.106-7.722,18.319,18.33a3.465,3.465,0,0,1-2.109.725Z"/><path class="cls-3" d="M164.216,95.877a6.494,6.494,0,1,0-6.493-6.494A6.5,6.5,0,0,0,164.216,95.877Zm0-10.488a3.994,3.994,0,1,1-3.993,3.994A4,4,0,0,1,164.216,85.389Z"/></svg>