<svg id="Layer_1" data-name="Layer 1" xmlns="http://www.w3.org/2000/svg" viewBox="0 0 210.5 124.78"><defs><style>.cls-1,.cls-6{fill:#fff;}.cls-1{stroke:#dbdadb;stroke-miterlimit:10;}.cls-2{fill:#b5d3c9;}.cls-3{fill:#6f9385;}.cls-4{fill:#fec288;}.cls-5{fill:#d88344;}.cls-7{fill:#dbdadb;}.cls-8{fill:none;}.cls-9{fill:#f1efef;}</style></defs><title>empty-state-week</title><circle class="cls-1" cx="151.416" cy="65.752" r="36.167"/><path class="cls-2" d="M151.741,33.252h-.65a32.27,32.27,0,0,0-32.175,32.175v.65a32.3,32.3,0,0,0,24.54,31.251l.946-22.265a.332.332,0,0,0-.2-.314c-3.811-1.788-3.735-8.029-3.735-8.029V63.527a11.7,11.7,0,0,0-.315-2.207c-.269-1.037-1.585-6.376-1.653-6.651l-.006-.022c-.055-.167-.693-2.172.516-2.512,1.261-.355,1.971,1.064,2.129,1.734s1.853,6.7,1.853,6.7.315.867.552.552.04-1.1.04-1.1l-2.4-7.93-.006-.017c-.062-.169-1.131-3.144.515-3.642,1.7-.513,2.207,1.655,2.207,1.655l2.72,8.751s.263.938.7.955c0,0,1.2.3,2.055-5.166.1-.611.22-1.156.277-1.385.118-.473.71-7.174,2.641-7.1a1.683,1.683,0,0,1,1.734,2.207c-.116.579-1.518,7.932-1.575,8.229l0,.017a16.43,16.43,0,0,1-.423,2.3h0c-.018.053-.036.1-.054.144s-.033.1-.049.166a.333.333,0,0,0,.636.192q.026-.077.049-.167c.2-.788.237-1.5.434-2.562s1.037-5.479,1.037-5.479.343-2.641,1.8-2.562,1.38,2.365,1.222,3.232-.631,3.193-.67,4.021-.513,3.745-.552,4.376-.591,5.164.631,4.493,1.616-1.1,1.774-1.577,1.419-3.823,3.981-3.823,2.523,1.853,2.01,2.365-2.168,1.537-2.641,2.326-.985,1.025-1.222,1.813a9.383,9.383,0,0,1-2.247,3.469c-1.182,1.143-1.025,3.114-3,4.454-.566.385-.882.6-1.044.721a.329.329,0,0,0-.136.293l1.631,23.105a.328.328,0,0,1-.017.122,32.289,32.289,0,0,0,28.31-31.94v-.65A32.27,32.27,0,0,0,151.741,33.252Z"/><path class="cls-3" d="M153.992,74.789a.329.329,0,0,1,.136-.293c.162-.117.478-.336,1.044-.721,1.971-1.34,1.813-3.311,3-4.454a9.383,9.383,0,0,0,2.247-3.469c.237-.788.749-1.025,1.222-1.813s2.129-1.813,2.641-2.326.552-2.365-2.01-2.365-3.824,3.35-3.981,3.823-.552.907-1.774,1.577-.67-3.863-.631-4.493.513-3.548.552-4.376.512-3.153.67-4.021.237-3.153-1.222-3.232-1.8,2.562-1.8,2.562-.84,4.415-1.037,5.479-.237,1.774-.434,2.562q-.022.09-.049.167a.333.333,0,0,1-.636-.192c.016-.063.033-.119.049-.166s.036-.091.054-.144h0a16.43,16.43,0,0,0,.423-2.3l0-.017c.057-.3,1.459-7.65,1.575-8.229a1.683,1.683,0,0,0-1.734-2.207c-1.931-.079-2.523,6.622-2.641,7.1-.057.229-.181.775-.277,1.385-.86,5.468-2.055,5.166-2.055,5.166-.44-.016-.7-.955-.7-.955l-2.72-8.751s-.512-2.168-2.207-1.655c-1.647.5-.578,3.472-.515,3.642l.006.017,2.4,7.93s.2.788-.04,1.1-.552-.552-.552-.552-1.695-6.031-1.853-6.7-.867-2.089-2.129-1.734c-1.209.34-.571,2.345-.516,2.512l.006.022c.068.274,1.384,5.614,1.653,6.651a11.7,11.7,0,0,1,.315,2.207V66.72s-.076,6.241,3.735,8.029a.332.332,0,0,1,.2.314l-.946,22.265a31.956,31.956,0,0,0,7.635.924h.65a32.129,32.129,0,0,0,3.865-.235.328.328,0,0,0,.017-.122Z"/><circle class="cls-1" cx="69.082" cy="86.955" r="36.167"/><path class="cls-4" d="M66.777,89.1a5.2,5.2,0,0,1,4.368,1.426,6.807,6.807,0,0,1,4.579-3.194c1.981-.205,3.841-2.908,3.841-2.908a22.659,22.659,0,0,1,.417-2.64,1.846,1.846,0,0,0-.591-.975,1.644,1.644,0,0,0-.289-.219A4.437,4.437,0,0,1,78,79.455a.077.077,0,0,0-.069-.031,1,1,0,0,1-1.069-.754.141.141,0,0,0-.169-.094,5.651,5.651,0,0,1-3.78-.708.079.079,0,0,0-.1.02,5.572,5.572,0,0,1-1.58,1.325,7.729,7.729,0,0,1-.159,2.151c-1.521,2.033-2.031.94-2.031.94-2.227.412-3.29-2.382-3.29-2.382a3.744,3.744,0,0,1-1.772-.315.04.04,0,0,0-.047.01A22.693,22.693,0,0,1,60.9,82.1a2.558,2.558,0,0,1-.351.951,6.191,6.191,0,0,0-.92,1.937c-.582,1.6,1.3,3.6,1.3,3.6C63.439,89.914,63.978,89.436,66.777,89.1Z"/><polygon class="cls-4" points="101.582 86.63 101.582 86.629 101.582 86.921 101.582 86.63"/><path class="cls-4" d="M45.822,93.069c2.053-1.5,2.978-4.112,4.371-6.237a16.637,16.637,0,0,0,1.677-3.62v0a3,3,0,0,1,.455-1.5l.055-.071a.581.581,0,0,1,.172-.154l.008-.006c7.031-6.263,10.455-6.483,11.145-6.316a2.474,2.474,0,0,1,1.219.979c.563.022,1.213.589,2.11.949l1.335.538a.021.021,0,0,0,.024-.006c1.039-1.3,1.986-2.353,1.986-2.353a2.819,2.819,0,0,1,1.562-1.425c10.82-.893,15.273,4.211,18.757,6.059s4.9,2.628,4.9,2.628l5.853,1.167A32.284,32.284,0,0,0,69.407,54.455h-.65A32.27,32.27,0,0,0,36.582,86.63v.65a31.88,31.88,0,0,0,2.281,11.865c1.123-1.078,2.171-2.042,2.777-2.5C43.438,95.3,43.769,94.573,45.822,93.069Z"/><path class="cls-4" d="M89.986,90.475c-4.378,1.652-6.233.55-6.233.55-5.626-1.952-10.693,2.383-10.693,2.383-.257,1.887-1.172,1.418-1.172,1.418-6.135-3.381-8.615-.355-8.615-.355A16.084,16.084,0,0,1,55.8,98.464c-3.426,1.57-7.783,5.668-11.506,9.658a32.134,32.134,0,0,0,24.461,11.334h.65A32.3,32.3,0,0,0,100.954,93.6Z"/><path class="cls-5" d="M101.582,83.723l-.136-.027c.088.967.136,1.944.136,2.933Z"/><path class="cls-5" d="M55.8,98.464a16.084,16.084,0,0,0,7.471-3.993s2.48-3.026,8.615.355c0,0,.914.469,1.172-1.418,0,0,5.067-4.335,10.693-2.383,0,0,1.854,1.1,6.233-.55L100.954,93.6a32.009,32.009,0,0,0,.628-6.316v-.651c0-.989-.048-1.966-.136-2.933l-5.853-1.167s-1.412-.781-4.9-2.628-7.936-6.952-18.757-6.059a2.819,2.819,0,0,0-1.562,1.425s-.947,1.054-1.986,2.353a.021.021,0,0,1-.024.006l-1.335-.538c-.9-.36-1.547-.927-2.11-.949a2.474,2.474,0,0,0-1.219-.979c-.691-.166-4.114.054-11.145,6.316l-.008.006a.581.581,0,0,0-.172.154l-.055.071a3,3,0,0,0-.455,1.5v0a16.637,16.637,0,0,1-1.677,3.62c-1.394,2.125-2.319,4.734-4.371,6.237S43.438,95.3,41.64,96.647c-.605.455-1.654,1.42-2.777,2.5a32.306,32.306,0,0,0,5.433,8.976C48.02,104.131,52.376,100.034,55.8,98.464ZM59.63,84.986a6.191,6.191,0,0,1,.92-1.937A2.558,2.558,0,0,0,60.9,82.1a22.693,22.693,0,0,0,3.034-2.48.04.04,0,0,1,.047-.01,3.744,3.744,0,0,0,1.772.315s1.063,2.794,3.29,2.382c0,0,.51,1.093,2.031-.94a7.729,7.729,0,0,0,.159-2.151,5.572,5.572,0,0,0,1.58-1.325.079.079,0,0,1,.1-.02,5.651,5.651,0,0,0,3.78.708.141.141,0,0,1,.169.094,1,1,0,0,0,1.069.754.077.077,0,0,1,.069.031,4.437,4.437,0,0,0,1.1,1.136,1.644,1.644,0,0,1,.289.219,1.846,1.846,0,0,1,.591.975,22.659,22.659,0,0,0-.417,2.64s-1.861,2.7-3.841,2.908a6.807,6.807,0,0,0-4.579,3.194A5.2,5.2,0,0,0,66.777,89.1c-2.8.336-3.338.814-5.844-.519C60.932,88.581,59.047,86.59,59.63,84.986Z"/><path class="cls-6" d="M180.1,38.771a21.871,21.871,0,0,0,7.477,1.3c11.309,0,20.477-8.488,20.477-18.958S198.891,2.158,187.582,2.158s-20.477,8.488-20.477,18.958a18.035,18.035,0,0,0,4.551,11.918"/><path class="cls-7" d="M187.582,40.574a22.319,22.319,0,0,1-7.648-1.334l.342-.939a21.334,21.334,0,0,0,7.307,1.273c11.015,0,19.977-8.28,19.977-18.458S198.6,2.658,187.582,2.658s-19.977,8.28-19.977,18.458a17.646,17.646,0,0,0,4.428,11.589l-.752.658a18.642,18.642,0,0,1-4.676-12.247c0-10.729,9.41-19.458,20.977-19.458s20.977,8.729,20.977,19.458S199.148,40.574,187.582,40.574Z"/><path class="cls-6" d="M171.788,33.179s.524,5.677-3.089,8.284a.383.383,0,0,0,.225.7c7.64-.231,11.182-3.392,11.182-3.392"/><path class="cls-7" d="M168.912,42.661a.87.87,0,0,1-.828-.594.886.886,0,0,1,.322-1.009c3.344-2.413,2.889-7.779,2.884-7.833a.5.5,0,1,1,1-.092c.021.237.481,5.7-3,8.515,7.085-.311,10.459-3.222,10.493-3.252a.5.5,0,0,1,.665.747c-.15.134-3.767,3.284-11.5,3.519Z"/><path class="cls-8" d="M187.582,14.416a6.7,6.7,0,1,0,6.7,6.7A6.7,6.7,0,0,0,187.582,14.416Zm2.7,3.3a1.1,1.1,0,1,1,0,2.2,1.2,1.2,0,0,1-1.2-1.1A1.2,1.2,0,0,1,190.282,17.716Zm-5.4,0a1.1,1.1,0,1,1-1.1,1.1A1.11,1.11,0,0,1,184.882,17.716Zm7.1,5.4a4.768,4.768,0,0,1-4.4,2.7,4.874,4.874,0,0,1-4.4-2.7.381.381,0,0,1,.7-.3,4.126,4.126,0,0,0,7.4,0,.365.365,0,0,1,.5-.2C191.982,22.716,192.082,23.016,191.982,23.116Z"/><path class="cls-7" d="M187.582,13.316a7.8,7.8,0,1,0,7.8,7.8A7.81,7.81,0,0,0,187.582,13.316Zm0,14.5a6.7,6.7,0,1,1,6.7-6.7A6.7,6.7,0,0,1,187.582,27.816Z"/><circle class="cls-7" cx="184.882" cy="18.816" r="1.1"/><circle class="cls-7" cx="190.282" cy="18.816" r="1.1"/><path class="cls-7" d="M191.782,22.616a.365.365,0,0,0-.5.2,4.126,4.126,0,0,1-7.4,0,.381.381,0,0,0-.7.3,4.768,4.768,0,0,0,4.4,2.7,4.874,4.874,0,0,0,4.4-2.7C192.082,23.016,191.982,22.716,191.782,22.616Z"/><path class="cls-6" d="M30.4,67.4a21.871,21.871,0,0,1-7.477,1.3c-11.309,0-20.477-8.488-20.477-18.958s9.168-18.958,20.477-18.958,20.477,8.488,20.477,18.958a18.035,18.035,0,0,1-4.551,11.918"/><path class="cls-7" d="M22.918,69.2c-11.566,0-20.977-8.729-20.977-19.458s9.41-19.458,20.977-19.458,20.977,8.729,20.977,19.458A18.642,18.642,0,0,1,39.22,61.992l-.752-.658a17.645,17.645,0,0,0,4.427-11.589c0-10.178-8.962-18.458-19.977-18.458S2.941,39.567,2.941,49.745,11.9,68.2,22.918,68.2a21.334,21.334,0,0,0,7.307-1.273l.342.939A22.33,22.33,0,0,1,22.918,69.2Z"/><path class="cls-6" d="M38.713,61.807s-.524,5.677,3.089,8.284a.383.383,0,0,1-.225.7c-7.64-.231-11.182-3.392-11.182-3.392"/><path class="cls-7" d="M41.589,71.29h-.028c-7.732-.234-11.349-3.385-11.5-3.519a.5.5,0,0,1,.665-.747c.034.03,3.407,2.941,10.492,3.252-3.485-2.82-3.025-8.277-3-8.514a.507.507,0,0,1,.544-.452.5.5,0,0,1,.452.543c0,.054-.451,5.427,2.884,7.834a.885.885,0,0,1,.322,1.009A.87.87,0,0,1,41.589,71.29Z"/><circle class="cls-9" cx="12.918" cy="49.745" r="2.626"/><path class="cls-7" d="M12.918,52.871a3.126,3.126,0,1,1,3.126-3.126A3.13,3.13,0,0,1,12.918,52.871Zm0-5.252a2.126,2.126,0,1,0,2.126,2.126A2.129,2.129,0,0,0,12.918,47.619Z"/><circle class="cls-9" cx="22.918" cy="49.745" r="2.626"/><path class="cls-7" d="M22.918,52.871a3.126,3.126,0,1,1,3.126-3.126A3.13,3.13,0,0,1,22.918,52.871Zm0-5.252a2.126,2.126,0,1,0,2.126,2.126A2.129,2.129,0,0,0,22.918,47.619Z"/><circle class="cls-9" cx="31.918" cy="49.745" r="2.626"/><path class="cls-7" d="M31.918,52.871a3.126,3.126,0,1,1,3.126-3.126A3.13,3.13,0,0,1,31.918,52.871Zm0-5.252a2.126,2.126,0,1,0,2.126,2.126A2.129,2.129,0,0,0,31.918,47.619Z"/></svg>