<?xml version="1.0" encoding="utf-8"?>
<!-- Generator: Adobe Illustrator 21.1.0, SVG Export Plug-In . SVG Version: 6.00 Build 0)  -->
<svg version="1.1" id="Layer_1" xmlns="http://www.w3.org/2000/svg" xmlns:xlink="http://www.w3.org/1999/xlink" x="0px" y="0px"
	 viewBox="0 0 32 32" style="enable-background:new 0 0 32 32;" xml:space="preserve">
<style type="text/css">
	.st0{fill:none;}
	.st1{fill:#FFAF4E;}
	.st2{fill:#34B289;}
</style>
<g>
	
		<rect x="12.644" y="12.645" transform="matrix(0.7071 -0.7071 0.7071 0.7071 -6.6278 16.0003)" class="st0" width="6.712" height="6.712"/>
	<path class="st0" d="M7.737,2.99C7.082,2.336,6.223,2.009,5.363,2.009c-0.86,0-1.719,0.327-2.373,0.981
		c-1.309,1.309-1.309,3.438,0,4.746l6.842,6.842l4.746-4.746L7.737,2.99z"/>
	<path class="st0" d="M2.99,29.009c1.309,1.309,3.438,1.309,4.746,0l6.842-6.842l-4.746-4.746L2.99,24.263
		C1.682,25.572,1.682,27.701,2.99,29.009z"/>
	<path class="st0" d="M29.009,2.99c-1.309-1.309-3.438-1.309-4.746,0l-6.842,6.842l4.746,4.746l6.842-6.842
		C30.318,6.428,30.318,4.299,29.009,2.99z"/>
	<path class="st0" d="M22.167,17.421l-4.746,4.746l6.842,6.842c1.309,1.309,3.438,1.309,4.746,0c1.309-1.309,1.309-3.438,0-4.746
		L22.167,17.421z"/>
	<path class="st1" d="M7.737,29.009c-1.309,1.309-3.438,1.309-4.746,0s-1.309-3.438,0-4.746l6.842-6.842L8.411,16l-6.842,6.842
		c-2.092,2.092-2.092,5.496,0,7.589C2.615,31.477,3.989,32,5.363,32s2.748-0.523,3.794-1.569L16,23.588l-1.421-1.421L7.737,29.009z"
		/>
	
		<rect x="15.728" y="18.079" transform="matrix(0.7071 -0.7071 0.7071 0.7071 -7.9051 19.0837)" class="st1" width="6.712" height="2.01"/>
	
		<rect x="9.561" y="11.912" transform="matrix(0.7071 -0.7071 0.7071 0.7071 -5.3506 12.9167)" class="st1" width="6.712" height="2.01"/>
	<path class="st1" d="M24.263,2.99c1.309-1.309,3.438-1.309,4.746,0c1.309,1.309,1.309,3.438,0,4.746l-6.842,6.842L23.589,16
		l6.842-6.842c2.092-2.092,2.092-5.496,0-7.589c-2.092-2.092-5.496-2.092-7.589,0L16,8.411l1.421,1.421L24.263,2.99z"/>
	<path class="st2" d="M23.589,16l-1.421-1.421l-4.746-4.746L16,8.411L9.158,1.569l0,0c-2.092-2.092-5.497-2.092-7.589,0
		c-2.092,2.092-2.092,5.496,0,7.589L8.411,16l1.421,1.421l4.746,4.746L16,23.589l6.842,6.842C23.888,31.477,25.262,32,26.637,32
		s2.748-0.523,3.794-1.569c2.092-2.092,2.092-5.496,0-7.589L23.589,16z M29.009,29.009c-1.309,1.309-3.438,1.309-4.746,0
		l-6.842-6.842L16,20.746L11.254,16l-1.421-1.421L2.99,7.736c-1.309-1.309-1.309-3.438,0-4.746c0.654-0.654,1.514-0.981,2.373-0.981
		S7.082,2.336,7.736,2.99l6.842,6.842L16,11.254L20.746,16l1.421,1.421l6.842,6.842C30.318,25.572,30.318,27.701,29.009,29.009z"/>
</g>
</svg>
