<?xml version="1.0" encoding="utf-8"?>
<!-- Generator: Adobe Illustrator 21.1.0, SVG Export Plug-In . SVG Version: 6.00 Build 0)  -->
<svg version="1.1" id="Layer_1" xmlns="http://www.w3.org/2000/svg" xmlns:xlink="http://www.w3.org/1999/xlink" x="0px" y="0px"
	 viewBox="0 0 116.293 32" style="enable-background:new 0 0 116.293 32;" xml:space="preserve">
<style type="text/css">
	.st0{fill:#131517;}
	.st1{fill:none;}
	.st2{fill:#FFAF4E;}
	.st3{fill:#34B289;}
</style>
<g>
	<path class="st0" d="M49.869,8.59c2.682,0,4.42,1.021,5.532,2.287c0.213,0.243,0.201,0.608-0.036,0.828l-1.336,1.239
		c-0.237,0.22-0.612,0.211-0.829-0.03c-0.819-0.906-1.877-1.359-3.172-1.359c-2.806,0-4.655,2.104-4.655,5.102
		s1.849,5.134,4.655,5.134c1.295,0,2.352-0.476,3.17-1.367c0.218-0.237,0.59-0.245,0.826-0.026l1.34,1.243
		c0.231,0.214,0.257,0.575,0.05,0.812c-1.008,1.154-2.533,2.109-4.815,2.277c-4.686,0.346-8.649-3.263-8.702-7.961
		C41.846,12.056,45.145,8.59,49.869,8.59z"/>
	<path class="st0" d="M68.85,22.333c-1.116,1.244-3.029,2.423-5.452,2.423c-3.316,0-4.942-1.722-4.942-4.879V9.561
		c0-0.325,0.263-0.589,0.589-0.589h2.171c0.325,0,0.589,0.263,0.589,0.589v9.104c0,2.391,1.211,3.125,3.093,3.125
		c1.69,0,3.157-0.957,3.954-2.009V9.561c0-0.325,0.263-0.589,0.589-0.589h2.171c0.325,0,0.589,0.263,0.589,0.589v14.223
		c0,0.325-0.263,0.589-0.589,0.589h-2.171c-0.325,0-0.589-0.263-0.589-0.589V22.333z"/>
	<path class="st0" d="M83.143,8.59c4.623,0,7.589,3.539,7.589,8.386v0.209c0,0.325-0.263,0.589-0.589,0.589H79.545
		c-0.384,0-0.668,0.362-0.572,0.734c0.511,1.983,2.187,3.507,4.777,3.507c1.301,0,2.819-0.457,3.905-1.287
		c0.265-0.203,0.645-0.141,0.836,0.133l0.857,1.232c0.175,0.252,0.129,0.599-0.109,0.793c-1.511,1.231-3.596,1.871-5.84,1.871
		c-4.623,0-8.067-3.22-8.067-8.099C75.332,12.193,78.584,8.59,83.143,8.59z M79.499,15.413h7.322c0.364,0,0.65-0.329,0.581-0.686
		c-0.319-1.654-1.602-3.395-4.258-3.395c-2.507,0-3.821,1.679-4.22,3.358C78.836,15.059,79.119,15.413,79.499,15.413z"/>
	<path class="st0" d="M93.621,20.531c0.189-0.299,0.593-0.362,0.869-0.141c1.165,0.934,2.997,1.72,4.733,1.72
		c2.009,0,3.029-0.733,3.029-1.881c0-1.339-1.626-1.817-3.508-2.232c-2.646-0.574-5.803-1.275-5.803-4.719
		c0-2.519,2.168-4.687,6.058-4.687c2.377,0,4.227,0.764,5.598,1.838c0.232,0.182,0.29,0.51,0.14,0.763l-0.768,1.291
		c-0.187,0.314-0.605,0.377-0.888,0.146c-0.978-0.8-2.447-1.36-4.049-1.36c-1.754,0-2.87,0.638-2.87,1.722
		c0,1.18,1.531,1.594,3.348,2.009c2.678,0.574,5.963,1.339,5.963,4.974c0,2.71-2.264,4.783-6.409,4.783
		c-2.414,0-4.639-0.707-6.221-2.046c-0.224-0.189-0.272-0.516-0.115-0.764L93.621,20.531z"/>
	<path class="st0" d="M109.276,20.802v-8.896h-1.962c-0.325,0-0.589-0.263-0.589-0.589V9.561c0-0.325,0.263-0.589,0.589-0.589h1.962
		v-3.62c0-0.325,0.263-0.589,0.589-0.589h2.171c0.325,0,0.589,0.263,0.589,0.589v3.62h2.536c0.325,0,0.589,0.263,0.589,0.589v1.756
		c0,0.325-0.263,0.589-0.589,0.589h-2.536v8.067c0,1.052,0.51,1.817,1.467,1.817c0.339,0,0.67-0.072,0.943-0.183
		c0.32-0.13,0.681,0.037,0.785,0.366l0.447,1.412c0.079,0.248-0.014,0.518-0.229,0.665c-0.615,0.423-1.515,0.706-2.807,0.706
		C110.647,24.756,109.276,23.353,109.276,20.802z"/>
</g>
<g>
	
		<rect x="12.644" y="12.644" transform="matrix(0.7071 -0.7071 0.7071 0.7071 -6.6277 16)" class="st1" width="6.712" height="6.712"/>
	<path class="st1" d="M7.736,2.99C7.082,2.336,6.223,2.009,5.363,2.009c-0.86,0-1.719,0.327-2.373,0.981
		c-1.309,1.309-1.309,3.438,0,4.746l6.842,6.842l4.746-4.746L7.736,2.99z"/>
	<path class="st1" d="M2.99,29.009c1.309,1.309,3.438,1.309,4.746,0l6.842-6.842l-4.746-4.746L2.99,24.263
		C1.682,25.572,1.682,27.701,2.99,29.009z"/>
	<path class="st1" d="M29.009,2.99c-1.309-1.309-3.438-1.309-4.746,0l-6.842,6.842l4.746,4.746l6.842-6.842
		C30.318,6.428,30.318,4.299,29.009,2.99z"/>
	<path class="st1" d="M22.167,17.421l-4.746,4.746l6.842,6.842c1.309,1.309,3.438,1.309,4.746,0c1.309-1.309,1.309-3.438,0-4.746
		L22.167,17.421z"/>
	<path class="st2" d="M7.736,29.009c-1.309,1.309-3.438,1.309-4.746,0s-1.309-3.438,0-4.746l6.842-6.842L8.411,16l-6.842,6.842
		c-2.092,2.092-2.092,5.496,0,7.589C2.615,31.477,3.989,32,5.363,32s2.748-0.523,3.794-1.569L16,23.588l-1.421-1.421L7.736,29.009z"
		/>
	
		<rect x="15.727" y="18.079" transform="matrix(0.7071 -0.7071 0.7071 0.7071 -7.905 19.0836)" class="st2" width="6.712" height="2.01"/>
	
		<rect x="9.56" y="11.912" transform="matrix(0.7071 -0.7071 0.7071 0.7071 -5.3503 12.9165)" class="st2" width="6.712" height="2.01"/>
	<path class="st2" d="M24.263,2.99c1.309-1.309,3.438-1.309,4.746,0c1.309,1.309,1.309,3.438,0,4.746l-6.842,6.842L23.588,16
		l6.842-6.842c2.092-2.092,2.092-5.496,0-7.589c-2.092-2.092-5.496-2.092-7.589,0L16,8.411l1.421,1.421L24.263,2.99z"/>
	<path class="st3" d="M23.588,16l-1.421-1.421l-4.746-4.746L16,8.411L9.158,1.569l0,0c-2.092-2.092-5.497-2.092-7.589,0
		c-2.092,2.092-2.092,5.496,0,7.589L8.411,16l1.421,1.421l4.746,4.746L16,23.589l6.842,6.842C23.888,31.477,25.262,32,26.636,32
		c1.374,0,2.748-0.523,3.794-1.569c2.092-2.092,2.092-5.496,0-7.589L23.588,16z M29.009,29.009c-1.309,1.309-3.438,1.309-4.746,0
		l-6.842-6.842L16,20.746L11.254,16l-1.421-1.421L2.99,7.736c-1.309-1.309-1.309-3.438,0-4.746c0.654-0.654,1.514-0.981,2.373-0.981
		S7.082,2.336,7.736,2.99l6.842,6.842L16,11.254L20.746,16l1.421,1.421l6.842,6.842C30.318,25.572,30.318,27.701,29.009,29.009z"/>
</g>
</svg>
