<svg id="Layer_1" data-name="Layer 1" xmlns="http://www.w3.org/2000/svg" viewBox="0 0 135.5 151.186"><defs><style>.cls-1{fill:#fff;}.cls-2{fill:#dbdadb;}.cls-3{fill:#f8f9fb;}.cls-4{fill:#f1efef;}.cls-5{fill:#67c198;}</style></defs><title>empty-state-week</title><rect class="cls-1" x="2.66" y="2.067" width="104.995" height="145.361" rx="3" ry="3"/><path class="cls-2" d="M104.655,147.928h-3.281a.5.5,0,0,1,0-1h3.281a2.5,2.5,0,0,0,2.5-2.5.515.515,0,0,1,.5-.518.484.484,0,0,1,.5.481v.036A3.5,3.5,0,0,1,104.655,147.928Zm-11.273,0H85.389a.5.5,0,1,1,0-1h7.992a.5.5,0,0,1,0,1Zm-15.984,0H69.405a.5.5,0,1,1,0-1H77.4a.5.5,0,0,1,0,1Zm-15.985,0H53.42a.5.5,0,0,1,0-1h7.992a.5.5,0,1,1,0,1Zm-15.984,0H37.435a.5.5,0,0,1,0-1h7.992a.5.5,0,1,1,0,1Zm-15.984,0H21.451a.5.5,0,0,1,0-1h7.992a.5.5,0,1,1,0,1Zm-15.984,0H5.66c-.075,0-.15,0-.225-.007a.5.5,0,0,1-.469-.529.475.475,0,0,1,.529-.469l.164,0h7.8a.5.5,0,1,1,0,1Zm-10.8-6.475a.5.5,0,0,1-.5-.5v-7.992a.5.5,0,0,1,1,0v7.992A.5.5,0,0,1,2.66,141.453Zm105-4.554a.5.5,0,0,1-.5-.5v-7.992a.5.5,0,1,1,1,0V136.4A.5.5,0,0,1,107.655,136.9Zm-105-11.431a.5.5,0,0,1-.5-.5v-7.992a.5.5,0,0,1,1,0v7.992A.5.5,0,0,1,2.66,125.469Zm105-4.554a.5.5,0,0,1-.5-.5v-7.992a.5.5,0,0,1,1,0v7.992A.5.5,0,0,1,107.655,120.915Zm-105-11.432a.5.5,0,0,1-.5-.5v-7.992a.5.5,0,0,1,1,0v7.992A.5.5,0,0,1,2.66,109.484Zm105-4.553a.5.5,0,0,1-.5-.5V96.439a.5.5,0,0,1,1,0v7.992A.5.5,0,0,1,107.655,104.931ZM2.66,93.5a.5.5,0,0,1-.5-.5V85.007a.5.5,0,0,1,1,0V93A.5.5,0,0,1,2.66,93.5Zm105-4.553a.5.5,0,0,1-.5-.5V80.454a.5.5,0,0,1,1,0v7.992A.5.5,0,0,1,107.655,88.947ZM2.66,77.515a.5.5,0,0,1-.5-.5V69.023a.5.5,0,0,1,1,0v7.992A.5.5,0,0,1,2.66,77.515Zm105-4.553a.5.5,0,0,1-.5-.5V64.469a.5.5,0,1,1,1,0v7.993A.5.5,0,0,1,107.655,72.962ZM2.66,61.531a.5.5,0,0,1-.5-.5V53.038a.5.5,0,0,1,1,0v7.992A.5.5,0,0,1,2.66,61.531Zm105-4.554a.5.5,0,0,1-.5-.5V48.485a.5.5,0,1,1,1,0v7.992A.5.5,0,0,1,107.655,56.977ZM2.66,45.546a.5.5,0,0,1-.5-.5V37.053a.5.5,0,0,1,1,0v7.993A.5.5,0,0,1,2.66,45.546Zm105-4.554a.5.5,0,0,1-.5-.5V32.5a.5.5,0,1,1,1,0v7.992A.5.5,0,0,1,107.655,40.993ZM2.66,29.561a.5.5,0,0,1-.5-.5V21.069a.5.5,0,0,1,1,0v7.992A.5.5,0,0,1,2.66,29.561Zm105-4.553a.5.5,0,0,1-.5-.5V16.516a.5.5,0,0,1,1,0v7.992A.5.5,0,0,1,107.655,25.008ZM2.66,13.577a.5.5,0,0,1-.5-.5V5.084a.5.5,0,0,1,1,0v7.992A.5.5,0,0,1,2.66,13.577Zm105-4.553a.5.5,0,0,1-.5-.5V5.067a2.5,2.5,0,0,0-2.354-2.5.5.5,0,1,1,.059-1,3.5,3.5,0,0,1,3.295,3.494V8.524A.5.5,0,0,1,107.655,9.024ZM96.839,2.567H88.846a.5.5,0,0,1,0-1h7.992a.5.5,0,1,1,0,1Zm-15.985,0H72.861a.5.5,0,0,1,0-1h7.992a.5.5,0,1,1,0,1Zm-15.984,0H56.877a.5.5,0,0,1,0-1h7.992a.5.5,0,1,1,0,1Zm-15.984,0H40.892a.5.5,0,0,1,0-1h7.992a.5.5,0,1,1,0,1Zm-15.984,0H24.908a.5.5,0,0,1,0-1H32.9a.5.5,0,1,1,0,1Zm-15.984,0H8.924a.5.5,0,0,1,0-1h7.992a.5.5,0,1,1,0,1Z"/><rect class="cls-3" x="96.18" y="70.439" width="10.5" height="75.33" transform="translate(-46.733 103.385) rotate(-45)"/><path class="cls-2" d="M132.482,131.024l-8.132,8.132L70.378,85.183l8.132-8.132Zm-8.132,6.718,6.718-6.718L78.509,78.465l-6.718,6.718Z"/><rect class="cls-1" x="62.786" y="65.148" width="10.5" height="19.123" transform="translate(-32.9 69.99) rotate(-45)"/><path class="cls-2" d="M71.085,85.89,56.855,71.66l8.132-8.132L79.217,77.758ZM58.269,71.66,71.085,84.476,77.8,77.758,64.987,64.943Z"/><rect class="cls-4" x="97.376" y="72.618" width="4.75" height="74.329" transform="translate(-48.412 102.689) rotate(-45)"/><path class="cls-4" d="M65.562,36a10,10,0,1,1,10-10A10.012,10.012,0,0,1,65.562,36Zm0-16a6,6,0,1,0,6,6A6.007,6.007,0,0,0,65.562,20Z"/><rect class="cls-4" x="31.362" y="51.607" width="3.733" height="16.559"/><rect class="cls-4" x="31.362" y="51.607" width="3.733" height="16.559" transform="translate(-26.658 93.115) rotate(-90)"/><rect class="cls-4" x="85.113" y="43.893" width="2.175" height="9.648" transform="translate(59.696 -46.684) rotate(45)"/><rect class="cls-4" x="85.113" y="43.893" width="2.175" height="9.648" transform="translate(-9.201 75.222) rotate(-45)"/><circle class="cls-5" cx="26.437" cy="94.185" r="4.125"/><circle class="cls-5" cx="37.229" cy="21.002" r="0.938"/><circle class="cls-5" cx="16.721" cy="86.465" r="1.159"/><rect class="cls-5" x="19.95" y="38.568" width="1.999" height="8.867" transform="translate(36.543 -2.218) rotate(45)"/><rect class="cls-5" x="19.95" y="38.568" width="1.999" height="8.867" transform="translate(-24.271 27.408) rotate(-45)"/><polygon class="cls-4" points="44.538 97.654 38.372 97.654 35.289 102.994 38.372 108.334 44.538 108.334 47.621 102.994 44.538 97.654"/><circle class="cls-5" cx="93.229" cy="30.002" r="0.938"/></svg>