<svg id="Layer_1" data-name="Layer 1" xmlns="http://www.w3.org/2000/svg" viewBox="0 0 194.5 98.31"><defs><style>.cls-1{fill:#fff;}.cls-2{fill:#dbdadb;}</style></defs><title>empty-state-week</title><rect class="cls-1" x="3.935" y="89.703" width="46.943" height="4.347" rx="1" ry="1"/><path class="cls-2" d="M49.878,94.549H4.935a1.5,1.5,0,0,1-1.5-1.5V90.7a1.5,1.5,0,0,1,1.5-1.5H49.878a1.5,1.5,0,0,1,1.5,1.5v2.347A1.5,1.5,0,0,1,49.878,94.549ZM4.935,90.2a.5.5,0,0,0-.5.5v2.347a.5.5,0,0,0,.5.5H49.878a.5.5,0,0,0,.5-.5V90.7a.5.5,0,0,0-.5-.5Z"/><path class="cls-1" d="M27.407,27.311H43.576a1.1,1.1,0,0,1,1.073,1l4.418,60.4a.918.918,0,0,1-.927,1H6.674a.918.918,0,0,1-.927-1l4.418-60.4a1.1,1.1,0,0,1,1.073-1H27.407"/><path class="cls-2" d="M48.14,90.2H6.673a1.418,1.418,0,0,1-1.426-1.533l4.418-60.4a1.6,1.6,0,0,1,1.572-1.461H43.576a1.6,1.6,0,0,1,1.572,1.461l4.418,60.4A1.418,1.418,0,0,1,48.14,90.2Zm-36.9-62.392a.6.6,0,0,0-.574.533l-4.418,60.4a.417.417,0,0,0,.428.461H48.14a.417.417,0,0,0,.428-.461l-4.418-60.4a.6.6,0,0,0-.574-.533Z"/><path class="cls-2" d="M45.175,36.008H9.638a.5.5,0,1,1,0-1H45.175a.5.5,0,0,1,0,1Z"/><path class="cls-2" d="M45.452,39.787H9.362a.5.5,0,0,1,0-1h36.09a.5.5,0,0,1,0,1Z"/><path class="cls-2" d="M47.328,65.432H7.486a.5.5,0,1,1,0-1H47.328a.5.5,0,0,1,0,1Z"/><path class="cls-2" d="M47.628,69.527H7.186a.5.5,0,0,1,0-1H47.628a.5.5,0,0,1,0,1Z"/><path class="cls-2" d="M47.954,73.988H6.86a.5.5,0,0,1,0-1H47.954a.5.5,0,0,1,0,1Z"/><rect class="cls-1" x="64.563" y="89.703" width="46.943" height="4.347" rx="1" ry="1"/><path class="cls-2" d="M110.506,94.549H65.563a1.5,1.5,0,0,1-1.5-1.5V90.7a1.5,1.5,0,0,1,1.5-1.5h44.943a1.5,1.5,0,0,1,1.5,1.5v2.347A1.5,1.5,0,0,1,110.506,94.549ZM65.563,90.2a.5.5,0,0,0-.5.5v2.347a.5.5,0,0,0,.5.5h44.943a.5.5,0,0,0,.5-.5V90.7a.5.5,0,0,0-.5-.5Z"/><path class="cls-1" d="M88.035,27.311H104.2a1.1,1.1,0,0,1,1.073,1l4.418,60.4a.918.918,0,0,1-.927,1H67.3a.918.918,0,0,1-.927-1l4.418-60.4a1.1,1.1,0,0,1,1.073-1H88.035"/><path class="cls-2" d="M108.768,90.2H67.3a1.419,1.419,0,0,1-1.427-1.533l4.419-60.4a1.6,1.6,0,0,1,1.571-1.461H104.2a1.6,1.6,0,0,1,1.572,1.461l4.418,60.4a1.418,1.418,0,0,1-1.426,1.533Zm-36.9-62.392a.591.591,0,0,0-.573.533l-4.419,60.4a.425.425,0,0,0,.109.327.43.43,0,0,0,.319.134h41.466a.417.417,0,0,0,.428-.461l-4.418-60.4a.592.592,0,0,0-.574-.533Z"/><path class="cls-2" d="M105.8,36.008H70.266a.5.5,0,0,1,0-1H105.8a.5.5,0,0,1,0,1Z"/><path class="cls-2" d="M106.081,39.787H69.99a.5.5,0,0,1,0-1h36.091a.5.5,0,0,1,0,1Z"/><path class="cls-2" d="M107.957,65.432H68.114a.5.5,0,0,1,0-1h39.843a.5.5,0,0,1,0,1Z"/><path class="cls-2" d="M108.255,69.527H67.815a.5.5,0,0,1,0-1h40.44a.5.5,0,0,1,0,1Z"/><path class="cls-2" d="M108.582,73.988H67.488a.5.5,0,0,1,0-1h41.094a.5.5,0,0,1,0,1Z"/><rect class="cls-1" x="140.06" y="65.349" width="46.943" height="4.347" rx="1" ry="1" transform="translate(-11.852 90.812) rotate(-30)"/><path class="cls-2" d="M144.661,81.274a1.5,1.5,0,0,1-1.3-.748l-1.173-2.033a1.5,1.5,0,0,1,.548-2.049l38.923-22.472a1.474,1.474,0,0,1,1.137-.149,1.492,1.492,0,0,1,.912.7l1.173,2.031h0a1.5,1.5,0,0,1-.55,2.049L145.408,81.073A1.483,1.483,0,0,1,144.661,81.274Zm37.743-26.5a.487.487,0,0,0-.246.066L143.234,77.309a.5.5,0,0,0-.183.684l1.173,2.032a.5.5,0,0,0,.684.183L183.83,57.736a.491.491,0,0,0,.231-.3.5.5,0,0,0-.048-.379l-1.174-2.032a.507.507,0,0,0-.436-.25Z"/><path class="cls-1" d="M131.25,11.607l14-8.085a1.1,1.1,0,0,1,1.428.327l34.025,50.1a.918.918,0,0,1-.3,1.327L144.49,76.007a.918.918,0,0,1-1.3-.4L116.816,21.092a1.1,1.1,0,0,1,.431-1.4l14-8.085"/><path class="cls-2" d="M144.02,76.636a1.416,1.416,0,0,1-1.281-.812L116.366,21.31A1.6,1.6,0,0,1,117,19.259L145,3.09a1.6,1.6,0,0,1,2.092.479l34.024,50.1a1.417,1.417,0,0,1-.468,2.041L144.74,76.44A1.428,1.428,0,0,1,144.02,76.636Zm1.761-72.753a.558.558,0,0,0-.278.072l-14,8.085h0l-14,8.084a.6.6,0,0,0-.23.75l26.373,54.515a.426.426,0,0,0,.259.229.444.444,0,0,0,.342-.043l35.911-20.733a.419.419,0,0,0,.141-.613l-34.025-50.1A.588.588,0,0,0,145.781,3.883ZM131.25,11.608h0Z"/><path class="cls-2" d="M119.961,28.091a.5.5,0,0,1-.25-.933L150.487,9.39a.5.5,0,1,1,.5.865L120.211,28.024A.5.5,0,0,1,119.961,28.091Z"/><path class="cls-2" d="M121.61,31.5a.5.5,0,0,1-.25-.933l31.255-18.045a.5.5,0,1,1,.5.865L121.86,31.434A.5.5,0,0,1,121.61,31.5Z"/><path class="cls-2" d="M132.808,54.649a.5.5,0,0,1-.25-.933l34.5-19.921a.5.5,0,0,1,.5.865l-34.5,19.921A.5.5,0,0,1,132.808,54.649Z"/><path class="cls-2" d="M134.6,58.345a.5.5,0,0,1-.25-.933l35.022-20.221a.5.5,0,1,1,.5.865L134.846,58.278A.5.5,0,0,1,134.6,58.345Z"/><path class="cls-2" d="M136.544,62.371a.5.5,0,0,1-.25-.933l35.589-20.547a.5.5,0,0,1,.5.865L136.794,62.3A.5.5,0,0,1,136.544,62.371Z"/><ellipse class="cls-2" cx="165.586" cy="89.703" rx="26.349" ry="4.042"/></svg>