<svg id="Layer_1" data-name="Layer 1" xmlns="http://www.w3.org/2000/svg" viewBox="0 0 186 158.78"><defs><style>.cls-1{fill:#fff;}.cls-2{fill:#dbdadb;}.cls-3{fill:#f1efef;}.cls-4{fill:#708680;}.cls-5{fill:#465e57;}.cls-6{fill:#fec288;}.cls-7{fill:#d88344;}.cls-8{fill:#b5d3c9;}.cls-9{fill:#6f9385;}</style></defs><title>empty-state-week</title><rect class="cls-1" x="2.167" y="2.191" width="140.667" height="43.092" rx="3" ry="3"/><path class="cls-2" d="M139.833,45.783H5.167a3.5,3.5,0,0,1-3.5-3.5V5.192a3.5,3.5,0,0,1,3.5-3.5H139.833a3.5,3.5,0,0,1,3.5,3.5V42.283A3.5,3.5,0,0,1,139.833,45.783ZM5.167,2.692a2.5,2.5,0,0,0-2.5,2.5V42.283a2.5,2.5,0,0,0,2.5,2.5H139.833a2.5,2.5,0,0,0,2.5-2.5V5.192a2.5,2.5,0,0,0-2.5-2.5Z"/><rect class="cls-1" x="43.167" y="57.844" width="140.667" height="43.092" rx="3" ry="3"/><path class="cls-2" d="M180.833,101.436H46.167a3.5,3.5,0,0,1-3.5-3.5V60.844a3.5,3.5,0,0,1,3.5-3.5H180.833a3.5,3.5,0,0,1,3.5,3.5V97.936A3.5,3.5,0,0,1,180.833,101.436ZM46.167,58.344a2.5,2.5,0,0,0-2.5,2.5V97.936a2.5,2.5,0,0,0,2.5,2.5H180.833a2.5,2.5,0,0,0,2.5-2.5V60.844a2.5,2.5,0,0,0-2.5-2.5Z"/><rect class="cls-1" x="13.833" y="113.497" width="140.667" height="43.092" rx="3" ry="3"/><path class="cls-2" d="M151.5,157.088H16.833a3.5,3.5,0,0,1-3.5-3.5V116.5a3.5,3.5,0,0,1,3.5-3.5H151.5a3.5,3.5,0,0,1,3.5,3.5v37.091A3.5,3.5,0,0,1,151.5,157.088ZM16.833,114a2.5,2.5,0,0,0-2.5,2.5v37.091a2.5,2.5,0,0,0,2.5,2.5H151.5a2.5,2.5,0,0,0,2.5-2.5V116.5a2.5,2.5,0,0,0-2.5-2.5Z"/><rect class="cls-3" x="44.167" y="15.262" width="33.667" height="4.075" rx="2" ry="2"/><path class="cls-3" d="M130.476,25.3a1.5,1.5,0,0,1-1.5,1.5H45.667a1.5,1.5,0,0,1-1.5-1.5h0a1.5,1.5,0,0,1,1.5-1.5h83.309a1.5,1.5,0,0,1,1.5,1.5Z"/><path class="cls-3" d="M117.208,31.8a1.5,1.5,0,0,1-1.5,1.5H45.667a1.5,1.5,0,0,1-1.5-1.5h0a1.5,1.5,0,0,1,1.5-1.5h70.042a1.5,1.5,0,0,1,1.5,1.5Z"/><rect class="cls-3" x="85.167" y="70.371" width="33.667" height="4.075" rx="2" ry="2"/><path class="cls-3" d="M171.476,80.409a1.5,1.5,0,0,1-1.5,1.5H86.667a1.5,1.5,0,0,1-1.5-1.5h0a1.5,1.5,0,0,1,1.5-1.5h83.309a1.5,1.5,0,0,1,1.5,1.5Z"/><path class="cls-3" d="M123.083,86.909a1.5,1.5,0,0,1-1.5,1.5H86.667a1.5,1.5,0,0,1-1.5-1.5h0a1.5,1.5,0,0,1,1.5-1.5h34.917a1.5,1.5,0,0,1,1.5,1.5Z"/><rect class="cls-3" x="55.833" y="129.274" width="33.667" height="4.075" rx="2" ry="2"/><path class="cls-3" d="M132.218,139.312a1.5,1.5,0,0,1-1.5,1.5H57.333a1.5,1.5,0,0,1-1.5-1.5h0a1.5,1.5,0,0,1,1.5-1.5h73.384a1.5,1.5,0,0,1,1.5,1.5Z"/><path class="cls-4" d="M47.911,134.913v.26a12.907,12.907,0,0,1-7.089,11.489,12.778,12.778,0,0,1-5.781,1.381h-.26a12.908,12.908,0,0,1-12.87-12.87v-.26a12.908,12.908,0,0,1,12.87-12.87h.26A12.908,12.908,0,0,1,47.911,134.913Z"/><path class="cls-5" d="M40.822,146.662a12.74,12.74,0,0,1-4.255,1.29c-1.9-4.828-3.292-6.4-3.581-6.694a.3.3,0,0,0-.125-.073,3.246,3.246,0,0,1-1.875-1.378.291.291,0,0,0-.1-.1c-.608-.369-.42-.272-.758-.784-.35-.532-.768-1.175-.768-1.175a3.087,3.087,0,0,1-.542-1.707,8.323,8.323,0,0,0-.317-.916c-.291-.926.758-.893.927-.883l.042.005a2.472,2.472,0,0,1,1.767,1.975,1.212,1.212,0,0,0,1.435.887.206.206,0,0,0,.04-.012c2.175-.742,1.96-1.158,1.96-1.158a.759.759,0,0,1,.136-.508c.112-.2-.192-.35-.192-.35a3.282,3.282,0,0,1-1.639-.826.293.293,0,0,0-.212-.091H31.395a.32.32,0,0,0-.092.016c-1.436.485-1.537-.456-1.537-.456-.057-.475.068-1.062,1.469-1.5l1.4-.441a22.407,22.407,0,0,0,2.163.827.308.308,0,0,0,.095.016.29.29,0,0,0,.277-.37.3.3,0,0,0-.1-.144,4.128,4.128,0,0,1-.653-.734,2.287,2.287,0,0,0-.655-.679,1.353,1.353,0,0,1-.78-1.265.658.658,0,0,1,.58-.675.285.285,0,0,0,.243-.3,1.143,1.143,0,0,1,.7-1.219c.7-.215,1.152.6,1.378,1.085a6.761,6.761,0,0,0,.685,1.067l.009.01a6.066,6.066,0,0,1,1.126,2.041l.339,1.153c.031.043.474,1.076.987,2.294a2.518,2.518,0,0,1,.172.876,1.333,1.333,0,0,1-.172.719A11.646,11.646,0,0,0,38,139.462a.287.287,0,0,0,.014.165Z"/><path class="cls-6" d="M22.4,24.6a2.081,2.081,0,0,1,1.747.571,2.723,2.723,0,0,1,1.831-1.278c.792-.082,1.537-1.163,1.537-1.163a9.064,9.064,0,0,1,.167-1.056.738.738,0,0,0-.236-.39.658.658,0,0,0-.116-.088,1.775,1.775,0,0,1-.439-.454.031.031,0,0,0-.028-.013.4.4,0,0,1-.428-.3.056.056,0,0,0-.068-.038,2.261,2.261,0,0,1-1.512-.283.032.032,0,0,0-.04.008,2.229,2.229,0,0,1-.632.53,3.092,3.092,0,0,1-.064.86c-.608.813-.812.376-.812.376-.891.165-1.316-.953-1.316-.953a1.5,1.5,0,0,1-.709-.126.016.016,0,0,0-.019,0,9.077,9.077,0,0,1-1.214.992,1.023,1.023,0,0,1-.14.381,2.476,2.476,0,0,0-.368.775c-.233.641.521,1.438.521,1.438C21.064,24.921,21.279,24.73,22.4,24.6Z"/><polygon class="cls-6" points="36.321 23.607 36.321 23.607 36.321 23.724 36.321 23.607"/><path class="cls-6" d="M14.017,26.183a8.694,8.694,0,0,0,1.749-2.495,6.655,6.655,0,0,0,.671-1.448h0a1.2,1.2,0,0,1,.182-.6l.022-.028a.232.232,0,0,1,.069-.062l0,0c2.813-2.505,4.182-2.593,4.458-2.527a.99.99,0,0,1,.488.392c.225.009.485.236.844.38l.534.215.01,0c.416-.52.794-.941.794-.941a1.128,1.128,0,0,1,.625-.57c4.328-.357,6.109,1.685,7.5,2.424s1.958,1.051,1.958,1.051l2.341.467a12.913,12.913,0,0,0-12.816-11.7h-.26a12.908,12.908,0,0,0-12.87,12.87v.26a12.752,12.752,0,0,0,.912,4.746c.449-.431.869-.817,1.111-1C13.063,27.074,13.2,26.784,14.017,26.183Z"/><path class="cls-6" d="M31.682,25.145c-1.751.661-2.493.22-2.493.22a4.794,4.794,0,0,0-4.277.953c-.1.755-.469.567-.469.567C21.99,25.533,21,26.743,21,26.743a6.434,6.434,0,0,1-2.988,1.6,18.082,18.082,0,0,0-4.6,3.863,12.854,12.854,0,0,0,9.784,4.534h.26A12.92,12.92,0,0,0,36.07,26.394Z"/><path class="cls-7" d="M36.321,22.444l-.054-.011c.035.387.054.778.054,1.173Z"/><path class="cls-7" d="M18.009,28.341A6.434,6.434,0,0,0,21,26.743s.992-1.21,3.446.142c0,0,.366.188.469-.567a4.794,4.794,0,0,1,4.277-.953s.742.441,2.493-.22l4.387,1.249a12.8,12.8,0,0,0,.251-2.526v-.26c0-.4-.019-.787-.054-1.173l-2.341-.467s-.565-.312-1.958-1.051-3.175-2.781-7.5-2.424a1.128,1.128,0,0,0-.625.57s-.379.422-.794.941l-.01,0-.534-.215c-.359-.144-.619-.371-.844-.38a.99.99,0,0,0-.488-.392c-.276-.066-1.646.022-4.458,2.527l0,0a.232.232,0,0,0-.069.062l-.022.028a1.2,1.2,0,0,0-.182.6h0a6.655,6.655,0,0,1-.671,1.448,8.694,8.694,0,0,1-1.749,2.495c-.821.6-.954.891-1.673,1.431-.242.182-.661.568-1.111,1A12.922,12.922,0,0,0,13.407,32.2,18.082,18.082,0,0,1,18.009,28.341ZM19.54,22.95a2.476,2.476,0,0,1,.368-.775,1.023,1.023,0,0,0,.14-.381,9.077,9.077,0,0,0,1.214-.992.016.016,0,0,1,.019,0,1.5,1.5,0,0,0,.709.126s.425,1.118,1.316.953c0,0,.2.437.812-.376a3.092,3.092,0,0,0,.064-.86,2.229,2.229,0,0,0,.632-.53.032.032,0,0,1,.04-.008,2.261,2.261,0,0,0,1.512.283.056.056,0,0,1,.068.038.4.4,0,0,0,.428.3.031.031,0,0,1,.028.013,1.775,1.775,0,0,0,.439.454.658.658,0,0,1,.116.088.738.738,0,0,1,.236.39,9.064,9.064,0,0,0-.167,1.056s-.744,1.081-1.537,1.163a2.723,2.723,0,0,0-1.831,1.278A2.081,2.081,0,0,0,22.4,24.6c-1.12.135-1.335.326-2.338-.207C20.061,24.388,19.307,23.591,19.54,22.95Z"/><path class="cls-8" d="M64.3,65.909h-.26a12.908,12.908,0,0,0-12.87,12.87v.26a12.921,12.921,0,0,0,9.816,12.5l.378-8.906a.133.133,0,0,0-.079-.125c-1.524-.715-1.494-3.212-1.494-3.212V78.019a4.681,4.681,0,0,0-.126-.883c-.108-.415-.634-2.55-.661-2.66l0-.009c-.022-.067-.277-.869.206-1,.5-.142.788.426.851.694s.741,2.68.741,2.68.126.347.221.221.016-.441.016-.441l-.961-3.172,0-.007c-.025-.068-.453-1.258.206-1.457.678-.205.883.662.883.662l1.088,3.5s.105.375.281.382c0,0,.478.121.822-2.067.038-.244.088-.463.111-.554.047-.189.284-2.87,1.056-2.838a.673.673,0,0,1,.694.883c-.046.232-.607,3.173-.63,3.292v.007a6.572,6.572,0,0,1-.169.919h0c-.007.021-.014.041-.022.058s-.013.041-.02.066a.133.133,0,0,0,.254.077q.01-.031.019-.067c.079-.315.095-.6.174-1.025s.415-2.192.415-2.192.137-1.056.721-1.025.552.946.489,1.293-.252,1.277-.268,1.608-.205,1.5-.221,1.75-.236,2.065.252,1.8.646-.441.71-.631.568-1.529,1.592-1.529,1.009.741.8.946a7.093,7.093,0,0,0-1.056.93c-.189.315-.394.41-.489.725a3.753,3.753,0,0,1-.9,1.388c-.473.457-.41,1.246-1.2,1.782-.227.154-.353.242-.418.288a.132.132,0,0,0-.054.117l.653,9.242a.131.131,0,0,1-.007.049A12.915,12.915,0,0,0,77.167,79.039v-.26A12.908,12.908,0,0,0,64.3,65.909Z"/><path class="cls-9" d="M65.2,82.524a.132.132,0,0,1,.054-.117c.065-.047.191-.134.418-.288.788-.536.725-1.324,1.2-1.782a3.753,3.753,0,0,0,.9-1.388c.095-.315.3-.41.489-.725a7.093,7.093,0,0,1,1.056-.93c.2-.2.221-.946-.8-.946s-1.529,1.34-1.592,1.529-.221.363-.71.631-.268-1.545-.252-1.8.205-1.419.221-1.75.2-1.261.268-1.608.095-1.261-.489-1.293-.721,1.025-.721,1.025-.336,1.766-.415,2.192-.095.71-.174,1.025q-.009.036-.019.067a.133.133,0,0,1-.254-.077c.006-.025.013-.048.02-.066s.014-.036.022-.058h0a6.572,6.572,0,0,0,.169-.919v-.007c.023-.119.584-3.06.63-3.292a.673.673,0,0,0-.694-.883c-.773-.032-1.009,2.649-1.056,2.838-.023.092-.073.31-.111.554-.344,2.187-.822,2.067-.822,2.067-.176-.007-.281-.382-.281-.382l-1.088-3.5s-.2-.867-.883-.662c-.659.2-.231,1.389-.206,1.457l0,.007.961,3.172s.079.315-.016.441-.221-.221-.221-.221-.678-2.412-.741-2.68-.347-.836-.851-.694c-.484.136-.229.938-.206,1l0,.009c.027.11.554,2.246.661,2.66a4.681,4.681,0,0,1,.126.883V79.3s-.03,2.5,1.494,3.212a.133.133,0,0,1,.079.125l-.378,8.906a12.782,12.782,0,0,0,3.054.37h.26a12.852,12.852,0,0,0,1.546-.094.131.131,0,0,0,.007-.049Z"/></svg>