<svg id="Layer_1" data-name="Layer 1" xmlns="http://www.w3.org/2000/svg" viewBox="0 0 140.5 173.28"><defs><style>.cls-1{fill:#f1efef;}.cls-2{fill:#dbdadb;}.cls-3{fill:#f8f9fb;}.cls-4{fill:#fff;}</style></defs><title>empty-state-week</title><rect class="cls-1" x="-5.749" y="31.041" width="151.998" height="111.198" transform="translate(-27.27 140.783) rotate(-80.003)"/><path class="cls-2" d="M112.216,171.716,1.722,152.238,28.284,1.564,138.778,21.042ZM2.88,151.428l108.525,19.13,26.214-148.7L29.094,2.722Z"/><rect class="cls-3" x="14.67" y="10.627" width="111.204" height="152.005" transform="matrix(0.99, -0.139, 0.139, 0.99, -11.374, 10.625)"/><path class="cls-2" d="M25.365,170.2l-.069-.5L4.068,18.68l.5-.069L115.179,3.062l.069.5,21.228,151.021-.5.069ZM5.2,19.532l21.02,149.536,109.131-15.341L114.328,4.192Z"/><polyline class="cls-4" points="125.857 32.23 125.857 162.63 14.657 162.63 14.657 10.63 104.257 10.63"/><polygon class="cls-2" points="126.357 163.13 14.157 163.13 14.157 10.13 104.256 10.13 104.256 11.13 15.157 11.13 15.157 162.13 125.357 162.13 125.357 32.23 126.357 32.23 126.357 163.13"/><polygon class="cls-4" points="125.857 32.23 104.257 32.23 104.257 10.63 125.857 32.23"/><path class="cls-2" d="M125.857,32.73h-21.6a.5.5,0,0,1-.5-.5V10.63a.5.5,0,0,1,.854-.354l21.6,21.6a.5.5,0,0,1-.354.854Zm-21.1-1H124.65L104.756,11.837Z"/><g id="_Group_" data-name="&lt;Group&gt;"><path class="cls-1" d="M89.7,90.31c-3.2,7.12-6.88,9.6-14.24,14.48-1.44.96-3.2,2.24-5.2,3.44a1.2,1.2,0,0,1-1.44,0c-2-1.2-3.44-2.48-5.2-3.44-7.36-5.2-10.8-7.36-14-14.48-3.92-8.64.96-14.24,1.2-14.48,0,0,3.92-5.2,10.08-4.64a17.174,17.174,0,0,1,8.88,3.68,14.887,14.887,0,0,1,8.88-3.68c6.4-.48,10.08,4.4,10.32,4.64C88.977,76.07,93.617,81.75,89.7,90.31Z"/><path class="cls-2" d="M69.537,108.97a1.376,1.376,0,0,1-1.024-.34c-.93-.561-1.732-1.132-2.509-1.685a26.383,26.383,0,0,0-2.626-1.717l-1.151-.808c-6.641-4.679-9.974-7.026-13.065-13.906-4.17-9.192,1.247-14.983,1.3-15.039.122-.169,4.135-5.362,10.479-4.784a17.609,17.609,0,0,1,8.824,3.538,15.283,15.283,0,0,1,8.864-3.54A12.75,12.75,0,0,1,89.262,75.4l.207.228,0,.083c.022.038.053.085.089.145a15.113,15.113,0,0,1,.591,14.664c-3.285,7.309-7.24,9.931-14.419,14.69-.413.275-.854.577-1.318.9-1.143.784-2.437,1.673-3.854,2.525A1.374,1.374,0,0,1,69.537,108.97ZM59.972,71.648c-5.312,0-8.721,4.436-8.756,4.483-.1.1-5,5.464-1.145,13.972,2.98,6.632,6.239,8.928,12.73,13.5l1.1.778a26.158,26.158,0,0,1,2.678,1.749c.774.551,1.575,1.12,2.491,1.67l.1.075c.086.086.139.094.366.094s.28-.008.365-.093l.1-.076c1.409-.845,2.705-1.735,3.849-2.521.469-.322.913-.628,1.331-.906,7.254-4.81,10.895-7.223,14.062-14.27v0a14.152,14.152,0,0,0-.534-13.727c-.071-.118-.124-.2-.161-.276l-.044-.052a11.757,11.757,0,0,0-9.809-4.358,14.476,14.476,0,0,0-8.6,3.565l-.312.259-.318-.251a16.669,16.669,0,0,0-8.625-3.575C60.547,71.66,60.256,71.648,59.972,71.648Z"/></g></svg>